<?xml version="1.0" standalone="no"?>
<!DOCTYPE svg PUBLIC "-//W3C//DTD SVG 1.1//EN" "http://www.w3.org/Graphics/SVG/1.1/DTD/svg11.dtd" >
<svg xmlns="http://www.w3.org/2000/svg">
<metadata></metadata>
<defs>
<font id="alwyn_new_roundedlight" horiz-adv-x="1351" >
<font-face units-per-em="2048" ascent="1556" descent="-492" />
<missing-glyph horiz-adv-x="512" />
<glyph unicode="&#xfb01;" horiz-adv-x="1120" d="M29 993v13q0 43 47 43h125v114q0 171 95.5 260.5t276.5 89.5q122 0 236 -30q23 -5 34 -20t5 -38l-6 -28q-10 -44 -58 -35q-110 27 -209 27q-122 0 -178.5 -55.5t-56.5 -182.5v-102h201q47 0 47 -45v-21q0 -45 -47 -45h-201v-891q0 -22 -13.5 -34.5t-35.5 -12.5h-43 q-22 0 -34.5 12.5t-12.5 34.5v891l-125 8q-47 6 -47 47zM803 47v954q0 22 12.5 35t34.5 13h45q22 0 34.5 -13t12.5 -35v-954q0 -22 -12.5 -34.5t-34.5 -12.5h-45q-22 0 -34.5 12.5t-12.5 34.5z" />
<glyph unicode="&#xfb02;" horiz-adv-x="1122" d="M29 993v13q0 43 47 43h125v114q0 171 95 260.5t275 89.5q105 0 232 -26h92q22 0 34.5 -12.5t12.5 -34.5v-1258q0 -59 29 -78q28 -14 22 -53l-8 -33q-10 -44 -55 -36q-24 5 -41.5 13t-39.5 27t-34 56t-12 90v1192q-138 29 -225 29q-128 0 -183 -55t-55 -185v-100h201 q47 0 47 -45v-21q0 -45 -47 -45h-201v-891q0 -22 -13.5 -34.5t-35.5 -12.5h-43q-22 0 -34.5 12.5t-12.5 34.5v891l-125 8q-47 6 -47 47z" />
<glyph unicode="&#xfb03;" horiz-adv-x="1767" d="M29 989v19q0 41 47 41h125v155q0 143 84.5 226t224.5 83q67 0 119 -10q45 -12 35 -55l-5 -31q-7 -43 -53 -37q-52 9 -94 9q-172 0 -172 -199v-141h506v114q0 171 96.5 260.5t278.5 89.5q122 0 233 -30q50 -10 41 -58l-8 -30q-9 -42 -55 -33q-110 27 -209 27 q-122 0 -180 -55.5t-58 -182.5v-102h201q47 0 47 -45v-21q0 -45 -47 -45h-201v-891q0 -22 -12.5 -34.5t-34.5 -12.5h-45q-22 0 -34.5 12.5t-12.5 34.5v891h-506v-891q0 -22 -13.5 -34.5t-35.5 -12.5h-43q-22 0 -34.5 12.5t-12.5 34.5v891l-121 8q-27 3 -39 12.5t-12 30.5z M1450 47v954q0 22 12.5 35t34.5 13h43q22 0 35.5 -13t13.5 -35v-954q0 -22 -13.5 -34.5t-35.5 -12.5h-43q-22 0 -34.5 12.5t-12.5 34.5z" />
<glyph unicode="&#xfb04;" horiz-adv-x="1767" d="M29 989v19q0 41 47 41h125v155q0 143 84.5 226t224.5 83q67 0 119 -10q45 -12 35 -55l-5 -31q-7 -43 -53 -37q-52 9 -94 9q-172 0 -172 -199v-141h506v114q0 171 96 260.5t277 89.5q104 0 231 -26h90q22 0 35.5 -12.5t13.5 -34.5v-1258q0 -59 29 -78q29 -16 20 -53 l-8 -33q-7 -44 -53 -36q-24 5 -42 13t-39.5 27t-33.5 56t-12 90v1192q-141 29 -227 29q-127 0 -182.5 -55t-55.5 -185v-100h201q47 0 47 -45v-21q0 -45 -47 -45h-201v-891q0 -22 -12.5 -34.5t-34.5 -12.5h-45q-22 0 -34.5 12.5t-12.5 34.5v891h-506v-891q0 -22 -13.5 -34.5 t-35.5 -12.5h-43q-22 0 -34.5 12.5t-12.5 34.5v891l-121 8q-27 3 -39 12.5t-12 30.5z" />
<glyph horiz-adv-x="0" />
<glyph horiz-adv-x="682" />
<glyph unicode=" "  horiz-adv-x="512" />
<glyph unicode="&#x09;" horiz-adv-x="512" />
<glyph unicode="&#xa0;" horiz-adv-x="512" />
<glyph unicode="!" horiz-adv-x="702" d="M252 72q0 40 29 68t69 28q41 0 71 -28t30 -68t-30 -69.5t-71 -29.5q-40 0 -69 29.5t-29 69.5zM266 1382q-1 22 11 35t34 13h80q22 0 34.5 -13t12.5 -35l-18 -884q-3 -48 -45 -54l-43 -8q-21 -3 -34 8.5t-13 32.5z" />
<glyph unicode="&#x22;" horiz-adv-x="638" d="M113 1382q0 22 12.5 35t34.5 13h39q22 0 34.5 -13t12.5 -35l-10 -376q0 -22 -14 -35t-36 -13h-14q-22 0 -35.5 13t-13.5 35zM393 1382q0 22 12.5 35t34.5 13h41q22 0 34 -13t11 -35l-10 -376q0 -22 -12.5 -35t-34.5 -13h-16q-22 0 -36 13t-14 35z" />
<glyph unicode="#" horiz-adv-x="1132" d="M141 668v32q0 22 12.5 35t34.5 13h125v256h-125q-22 0 -34.5 12.5t-12.5 34.5v32q0 22 13 36t34 14h125v249q0 22 13.5 35t35.5 13h33q22 0 34.5 -13t12.5 -35v-249h246v249q0 22 13.5 35t35.5 13h33q22 0 34.5 -13t12.5 -35v-249h127q21 0 34 -14t13 -36v-32 q0 -22 -12.5 -34.5t-34.5 -12.5h-127v-256h127q22 0 34.5 -13t12.5 -35v-32q0 -22 -13 -36t-34 -14h-127v-249q0 -22 -12.5 -34.5t-34.5 -12.5h-33q-22 0 -35.5 12.5t-13.5 34.5v249h-246v-249q0 -22 -12.5 -34.5t-34.5 -12.5h-33q-22 0 -35.5 12.5t-13.5 34.5v249h-125 q-21 0 -34 14t-13 36zM442 748h246v256h-246v-256z" />
<glyph unicode="$" horiz-adv-x="1089" d="M129 90l4 31q12 48 62 35q175 -56 309 -56q153 0 228 72t75 197q0 71 -37 123.5t-96 85t-130.5 60t-143 59t-130.5 72t-96 108.5t-37 159q0 159 96.5 256.5t262.5 116.5v186q0 22 12.5 34.5t34.5 12.5h24q22 0 34.5 -12.5t12.5 -34.5v-182q108 -5 240 -51q48 -15 35 -62 l-8 -28q-16 -45 -62 -29q-128 45 -246 45q-140 0 -213 -65.5t-73 -186.5q0 -51 23 -91t61.5 -68t89 -51.5t106 -45.5t110.5 -46t105.5 -57t89 -73.5t61.5 -100.5t23 -134q0 -159 -96 -263t-266 -126v-187q0 -22 -12.5 -34.5t-34.5 -12.5h-25q-22 0 -34.5 12.5t-12.5 34.5 v180q-137 7 -311 58q-26 6 -33.5 20t-1.5 39z" />
<glyph unicode="%" horiz-adv-x="1726" d="M158 1010v139q0 125 80.5 216t214.5 91t215.5 -90.5t81.5 -216.5v-139q0 -127 -81 -217.5t-214 -90.5q-134 0 -215.5 90.5t-81.5 217.5zM266 1020q0 -92 48 -154.5t141 -62.5t140.5 62.5t47.5 154.5v117q0 93 -48 156t-142 63q-93 0 -140 -62.5t-47 -156.5v-117z M538.5 13q-6.5 13 0.5 30l538 1346q15 41 53 41h41q18 0 24.5 -13t0.5 -31l-541 -1347q-16 -39 -51 -39h-41q-18 0 -24.5 13zM975 281v139q0 125 80.5 215t214.5 90t215.5 -90t81.5 -215v-139q0 -127 -81 -217.5t-214 -90.5q-134 0 -215.5 90.5t-81.5 217.5zM1083 291 q0 -92 48 -154.5t141 -62.5t140.5 62.5t47.5 154.5v117q0 92 -48 154.5t-142 62.5q-93 0 -140 -62.5t-47 -154.5v-117z" />
<glyph unicode="&#x26;" horiz-adv-x="1218" d="M141 397q0 138 69.5 232t192.5 137q-96 46 -151 133t-55 207q0 186 131 296.5t325 110.5q122 0 224 -24q45 -9 36 -57l-6 -31q-10 -46 -55 -37q-94 20 -197 20q-140 0 -224.5 -71.5t-84.5 -206.5q0 -137 85 -211t224 -74h439q22 0 35.5 -12t13.5 -33v-31 q0 -22 -13.5 -34.5t-35.5 -12.5h-60v-592q0 -47 -47 -65q-169 -68 -348 -68q-223 0 -360.5 112.5t-137.5 311.5zM291 399q0 -147 92 -222t256 -75q144 0 268 50v546h-266q-163 0 -256.5 -76t-93.5 -223z" />
<glyph unicode="'" horiz-adv-x="358" d="M113 1382q-1 22 11 35t34 13h41q22 0 34.5 -13t12.5 -35l-10 -376q0 -22 -14 -35t-36 -13h-16q-22 0 -34.5 13t-12.5 35z" />
<glyph unicode="(" horiz-adv-x="620" d="M174 -47v1253q0 371 336 391q19 0 25 -11t6 -34v-39q0 -23 -5.5 -33.5t-25.5 -11.5q-45 -3 -79 -17t-61.5 -43.5t-42 -80t-14.5 -121.5v-1253q0 -135 51 -195.5t146 -68.5q19 -3 25 -14t6 -33v-33q0 -23 -6 -34t-25 -11q-336 15 -336 389z" />
<glyph unicode=")" horiz-adv-x="620" d="M80 -358q0 22 6 33t25 14q96 8 146 68.5t50 195.5v1253q0 71 -14.5 121.5t-41.5 80t-61 43.5t-79 17q-19 1 -25 11.5t-6 33.5v39q0 23 6.5 34t26.5 11q333 -20 333 -391v-1253q0 -374 -333 -389q-20 0 -26.5 11t-6.5 34v33z" />
<glyph unicode="*" horiz-adv-x="952" d="M132.5 1189q-5.5 17 6.5 36l15 26q25 42 65 17l205 -129l-10 243q-1 22 11 35t34 13h33q22 0 34 -13t11 -35l-9 -241l203 127q19 12 37 7.5t27 -24.5l16 -26q23 -42 -16 -64l-215 -110l215 -115q39 -19 16 -64l-14 -24q-10 -19 -28.5 -23.5t-37.5 6.5l-203 127l9 -239 q0 -22 -12 -35.5t-33 -13.5h-33q-22 0 -34.5 13.5t-10.5 35.5l10 242l-205 -130q-40 -22 -65 17l-15 24q-23 45 19 64l213 115l-213 112q-20 9 -25.5 26z" />
<glyph unicode="+" horiz-adv-x="1286" d="M193 627v35q0 22 13.5 34.5t35.5 12.5h336v338q0 22 12.5 34.5t34.5 12.5h34q22 0 36 -13t14 -34v-338h335q22 0 35 -12.5t13 -34.5v-35q0 -22 -13 -34.5t-35 -12.5h-335v-338q0 -21 -14 -34t-36 -13h-34q-22 0 -34.5 12.5t-12.5 34.5v338h-336q-22 0 -35.5 12.5 t-13.5 34.5z" />
<glyph unicode="," horiz-adv-x="477" d="M96 -256l88 371q12 49 58 49h53q22 0 31 -15.5t0 -42.5l-119 -370q-14 -41 -55 -41h-21q-46 0 -35 49z" />
<glyph unicode="-" horiz-adv-x="995" d="M188 565v27q0 22 14 35.5t36 13.5h520q22 0 34.5 -13.5t12.5 -35.5v-27q0 -22 -12.5 -34.5t-34.5 -12.5h-520q-22 0 -36 13t-14 34z" />
<glyph unicode="." horiz-adv-x="444" d="M123 72q0 40 29 68t69 28q41 0 71 -28t30 -68t-30 -69.5t-71 -29.5q-40 0 -69 29.5t-29 69.5z" />
<glyph unicode="/" horiz-adv-x="886" d="M164 -29l426 1502q4 20 20.5 32.5t38.5 12.5h39q22 0 31.5 -14t3.5 -34l-424 -1501q-13 -45 -59 -45h-41q-22 0 -31.5 13.5t-3.5 33.5z" />
<glyph unicode="0" horiz-adv-x="1202" d="M133 539v354q0 267 123 415t344 148q222 0 345.5 -151t123.5 -412v-354q0 -268 -122.5 -417t-346.5 -149q-220 0 -343.5 151.5t-123.5 414.5zM274 549q0 -95 16 -172t51.5 -142t101 -101t157.5 -36q74 0 131.5 24.5t94 65.5t60 100t33 122.5t9.5 138.5v334 q0 75 -9.5 138.5t-33 122t-60 99t-94 64.5t-131.5 24t-131 -24t-93.5 -64.5t-59.5 -99t-32.5 -122t-9.5 -138.5v-334z" />
<glyph unicode="1" horiz-adv-x="905" d="M102 1225q-19 45 25 61l297 125q40 19 80 19h39q22 0 34.5 -13t12.5 -35v-1259h219q22 0 35.5 -12.5t13.5 -34.5v-29q0 -22 -13.5 -34.5t-35.5 -12.5h-621q-22 0 -34.5 12.5t-12.5 34.5v29q0 22 12.5 34.5t34.5 12.5h263v1165l-277 -117q-40 -16 -59 23z" />
<glyph unicode="2" horiz-adv-x="1060" d="M106 47v84q0 115 37.5 210.5t97 160t132 119.5t145 102.5t132 95.5t97 111t37.5 137q0 111 -70.5 187.5t-207.5 76.5q-136 0 -270 -55q-48 -17 -66 27l-10 24q-16 47 33 66q149 63 313 63q192 0 307 -112.5t115 -276.5q0 -73 -23.5 -135.5t-63 -109.5t-91 -89.5 t-108 -80.5t-113 -76.5t-108 -84t-91 -97t-63 -121t-23.5 -150.5h649q22 0 35.5 -12.5t13.5 -34.5v-29q0 -22 -13.5 -34.5t-35.5 -12.5h-739q-22 0 -35 12.5t-13 34.5z" />
<glyph unicode="3" horiz-adv-x="954" d="M74 76l8 28q11 44 59 29q100 -35 228 -35q152 0 239.5 80.5t87.5 212.5q0 80 -29 139.5t-78.5 92.5t-108 49t-124.5 16h-37q-45 0 -45 45v31q0 47 43 47h29q138 0 224.5 76.5t86.5 193.5q0 110 -75 180t-209 70q-85 0 -209 -39q-22 -7 -38 1t-22 28l-10 27q-17 45 31 63 q133 45 248 45q189 0 308.5 -100t119.5 -271q0 -97 -61.5 -188.5t-174.5 -138.5q133 -42 204 -139t71 -228q0 -86 -30.5 -161t-88 -133t-148.5 -91t-204 -33q-151 0 -260 41q-22 6 -32 22.5t-3 39.5z" />
<glyph unicode="4" horiz-adv-x="1153" d="M104 535l205 847q9 48 58 48h36q21 0 31.5 -15t5.5 -37l-204 -856q-16 -67 45 -67h360v510q0 48 41 57l49 16q21 5 34 -4t13 -30v-549h230q22 0 34.5 -12.5t12.5 -34.5v-29q0 -22 -12.5 -34.5t-34.5 -12.5h-230v-285q0 -22 -12.5 -34.5t-34.5 -12.5h-41q-22 0 -35.5 12.5 t-13.5 34.5v285h-381q-97 0 -138.5 50t-17.5 153z" />
<glyph unicode="5" horiz-adv-x="1056" d="M94 92l8 31q5 22 22 31t40 0q157 -56 285 -56q162 0 256 102.5t94 250.5q0 92 -31 163.5t-104.5 117.5t-182.5 46q-125 0 -237 -43q-47 -18 -68 17l-18 30q-21 34 -21 82v518q0 21 12.5 34.5t32.5 13.5h639q49 0 43 -46l-4 -34q-3 -45 -53 -45h-537v-435q112 31 215 31 q214 0 335.5 -124t121.5 -328q0 -215 -142 -345.5t-356 -130.5q-158 0 -315 60q-44 17 -35 59z" />
<glyph unicode="6" horiz-adv-x="1132" d="M131 438v551q0 96 29 179.5t84.5 148.5t145.5 102t204 37q137 0 268 -43q44 -12 35 -57l-10 -35q-12 -43 -62 -27q-136 37 -229 37q-89 0 -155.5 -31t-102 -82.5t-52 -108.5t-16.5 -120v-158q151 95 305 95q93 0 174 -32.5t142.5 -93.5t97 -154.5t35.5 -207.5 q0 -146 -61.5 -253t-162 -159.5t-225.5 -52.5q-123 0 -222.5 52.5t-160.5 159.5t-61 253zM270 436q0 -148 78.5 -243t226.5 -95q102 0 172.5 47t102 122t31.5 171q0 104 -32.5 184.5t-104.5 130.5t-175 50q-145 0 -299 -94v-273z" />
<glyph unicode="7" horiz-adv-x="985" d="M57 1352v30q0 48 47 48h768q22 0 35 -13t13 -35v-41q0 -12 -2 -21.5t-7.5 -25t-7.5 -20.5q-37 -97 -97.5 -232t-105.5 -238.5t-90.5 -228t-72 -258.5t-29.5 -272q0 -45 -47 -45h-55q-46 0 -46 47q1 127 26 257.5t72 262t92.5 239t110.5 255t103 244.5h-660 q-22 0 -34.5 12.5t-12.5 34.5z" />
<glyph unicode="8" horiz-adv-x="1122" d="M109 350q0 78 23 141t67 109.5t91 78.5t113 64q-46 23 -80.5 45.5t-69 54.5t-57 67.5t-36 84t-13.5 105.5q0 105 58 187.5t152 125.5t204 43t204.5 -43t153 -125.5t58.5 -187.5q0 -68 -20 -123.5t-59 -96.5t-81 -69.5t-102 -58.5q67 -33 114.5 -65.5t93 -80t68.5 -112 t23 -144.5q0 -166 -127 -271.5t-326 -105.5t-325.5 105.5t-126.5 271.5zM252 350q0 -108 84.5 -180t224.5 -72q144 0 226.5 71.5t82.5 180.5q0 53 -18.5 98t-44.5 75.5t-73.5 61t-85.5 48t-99 43.5q-55 -24 -92 -43t-79 -48.5t-67 -61t-42 -76t-17 -97.5zM291 1100 q0 -45 15.5 -83t38.5 -65t62.5 -53t74.5 -43t87 -39q48 21 82.5 38.5t71 43.5t59.5 53.5t37.5 65.5t14.5 82q0 102 -78 166.5t-195 64.5t-193.5 -65.5t-76.5 -165.5z" />
<glyph unicode="9" horiz-adv-x="1136" d="M111 991q0 145 61 252t161.5 160t225.5 53q123 0 222.5 -53t161 -160t61.5 -252v-551q0 -96 -29 -179.5t-84.5 -148.5t-145.5 -102t-204 -37q-142 0 -269 43q-20 8 -29 25t-3 39l6 26q6 23 23 30.5t38 0.5q124 -39 232 -39q73 0 130.5 21t93 54.5t59 79t33 91.5t9.5 96 v160q-142 -92 -305 -92q-93 0 -174 32t-142 91.5t-96.5 152.5t-35.5 207zM254 991q0 -159 79.5 -259.5t231.5 -100.5q150 0 299 96v266q0 147 -78 242.5t-227 95.5q-150 0 -227.5 -96t-77.5 -244z" />
<glyph unicode=":" horiz-adv-x="444" d="M123 72q0 40 29 68t69 28q41 0 69.5 -28t28.5 -68t-28.5 -69.5t-69.5 -29.5q-40 0 -69 29.5t-29 69.5zM123 856q0 40 29 69t69 29q41 0 69.5 -29t28.5 -69t-28.5 -69t-69.5 -29q-40 0 -69 29t-29 69z" />
<glyph unicode=";" horiz-adv-x="501" d="M96 -256l90 371q9 49 58 49h51q22 0 32 -15.5t1 -42.5l-121 -370q-11 -41 -53 -41h-21q-48 0 -37 49zM184 858q0 40 28.5 68t68.5 28t69 -28t29 -68q0 -41 -29 -69.5t-69 -28.5t-68.5 28.5t-28.5 69.5z" />
<glyph unicode="&#x3c;" horiz-adv-x="1173" d="M154 553v20q0 41 43 66l684 395q43 23 61 -14l21 -37q20 -41 -23 -63l-618 -357l618 -354q41 -25 23 -66l-21 -37q-18 -37 -61 -14l-684 395q-43 25 -43 66z" />
<glyph unicode="=" horiz-adv-x="1288" d="M193 395v35q0 22 13.5 35.5t35.5 13.5h805q22 0 34.5 -13.5t12.5 -35.5v-35q0 -22 -12.5 -34.5t-34.5 -12.5h-805q-22 0 -35.5 12.5t-13.5 34.5zM193 852v35q0 22 13.5 34.5t35.5 12.5h805q22 0 34.5 -12.5t12.5 -34.5v-35q0 -22 -12.5 -34.5t-34.5 -12.5h-805 q-22 0 -35.5 12.5t-13.5 34.5z" />
<glyph unicode="&#x3e;" horiz-adv-x="1173" d="M213 143q-18 41 23 66l616 354l-616 357q-43 22 -23 63l18 37q18 38 64 14l684 -395q43 -25 43 -66v-20q0 -41 -43 -66l-684 -395q-46 -24 -64 14z" />
<glyph unicode="?" horiz-adv-x="931" d="M164 1325q-23 44 18 64q128 67 262 67q158 0 251 -94.5t93 -226.5q0 -58 -21 -111t-52.5 -92t-69 -87.5t-69.5 -95.5t-53.5 -118t-22.5 -154q-1 -21 -12 -31.5t-33 -13.5l-52 -4q-23 -2 -33.5 9t-9.5 36q1 81 17.5 151t42 118.5t56 91t60.5 77t55 68t40.5 72.5t15.5 82 q0 80 -55 137t-148 57q-90 0 -202 -53q-17 -10 -35.5 -6.5t-26.5 22.5zM332 72q0 40 29 68t69 28t69 -28t29 -68t-29 -69.5t-69 -29.5t-69 29.5t-29 69.5z" />
<glyph unicode="@" horiz-adv-x="1961" d="M152 496q0 197 65.5 360t180.5 271t271 167.5t337 59.5q179 0 331 -61.5t261 -173t170 -274t61 -358.5q0 -62 -11.5 -126.5t-38.5 -130t-66.5 -116t-101 -82.5t-136.5 -32q-175 0 -238 125q-139 -125 -305 -125q-139 0 -218 76t-79 200q0 142 105.5 208.5t293.5 66.5h170 v92q0 127 -51 185.5t-174 58.5q-83 0 -201 -29q-50 -14 -61 29l-6 22q-10 45 32 56q117 34 236 34q174 0 261 -89t87 -240v-375q0 -88 40.5 -137t107.5 -49q61 0 108.5 35.5t75 93t41.5 121.5t14 128q0 345 -196.5 551.5t-511.5 206.5q-157 0 -292.5 -51.5t-235 -146 t-156 -236.5t-56.5 -315q0 -177 55.5 -317.5t153 -230.5t228 -137t284.5 -47q134 0 270 33q46 13 52 -22l8 -37q3 -22 -4 -32t-27 -15q-141 -37 -299 -37q-174 0 -325 56t-265 160t-179.5 265.5t-65.5 360.5zM762 276q0 -75 45.5 -119t134.5 -44q135 0 266 104q-4 23 -4 72 v157h-166q-133 0 -204.5 -38.5t-71.5 -131.5z" />
<glyph unicode="A" horiz-adv-x="1329" d="M104 51l310 1180q27 104 93 164.5t157 60.5t157 -61t94 -166l308 -1180q2 -9 2 -16q0 -12 -6 -20q-10 -13 -33 -13h-45q-46 0 -58 47l-98 377h-643l-96 -377q-11 -47 -58 -47h-45q-23 0 -34 14q-7 9 -7 22q0 7 2 15zM375 547h577l-170 659q-33 119 -118 119 q-88 0 -119 -117z" />
<glyph unicode="B" horiz-adv-x="1204" d="M201 47v1276q0 21 14.5 39.5t36.5 26.5q189 67 352 67q197 0 311.5 -109.5t114.5 -271.5q0 -101 -46.5 -182.5t-133.5 -128.5q123 -42 188.5 -137.5t65.5 -220.5q0 -83 -29.5 -156t-84.5 -129t-142.5 -88.5t-196.5 -32.5h-403q-22 0 -34.5 12.5t-12.5 34.5zM342 127h305 q80 0 141.5 23.5t96.5 63.5t52 88.5t17 103.5q0 56 -16.5 104.5t-51.5 89t-96 63.5t-143 23h-305v-559zM342 809h260q142 0 211.5 73t69.5 185q0 115 -68.5 188.5t-210.5 73.5q-134 0 -262 -45v-475z" />
<glyph unicode="C" horiz-adv-x="1167" d="M141 504v420q0 255 132 393.5t376 138.5q174 0 359 -51q32 -8 32 -38q0 -7 -2 -15l-10 -39q-7 -32 -36 -32q-9 0 -21 3q-171 45 -312 45q-106 0 -180 -33t-114.5 -93.5t-58 -134t-17.5 -167.5v-375q0 -93 17.5 -166t58 -133.5t115 -93.5t179.5 -33q130 0 312 43 q12 3 21 3q30 0 36 -31l10 -39q1 -7 1 -13q0 -31 -31 -40q-3 -1 -24.5 -6t-28.5 -6.5t-29 -6t-33.5 -7t-34.5 -6.5t-38.5 -6t-38.5 -4.5t-42.5 -4t-43 -2.5t-46.5 -1q-245 0 -376.5 137.5t-131.5 393.5z" />
<glyph unicode="D" horiz-adv-x="1337" d="M201 47v1335q0 22 12.5 35t34.5 13h434q260 0 386 -123.5t126 -382.5v-420q0 -257 -126 -380.5t-386 -123.5h-434q-22 0 -34.5 12.5t-12.5 34.5zM342 127h338q109 0 183 27.5t114 83t56 125t16 167.5v371q0 97 -16 166.5t-56 125t-114 83t-183 27.5h-338v-1176z" />
<glyph unicode="E" horiz-adv-x="1058" d="M160 352v723q0 165 100 260t297 95h322q22 0 34.5 -13t12.5 -35v-32q0 -22 -12.5 -34.5t-34.5 -12.5h-322q-141 0 -197.5 -60t-56.5 -172v-274h514q22 0 34.5 -12.5t12.5 -34.5v-33q0 -22 -12.5 -34.5t-34.5 -12.5h-514v-312q0 -113 56.5 -172t197.5 -59h330 q22 0 34.5 -12.5t12.5 -34.5v-33q0 -22 -12.5 -34.5t-34.5 -12.5h-330q-196 0 -296.5 94.5t-100.5 257.5z" />
<glyph unicode="F" horiz-adv-x="1062" d="M201 47v1335q0 22 12.5 35t34.5 13h667q22 0 35 -13t13 -35v-32q0 -22 -13 -34.5t-35 -12.5h-573v-529h510q22 0 35.5 -12.5t13.5 -34.5v-33q0 -22 -13.5 -34.5t-35.5 -12.5h-510v-600q0 -22 -12.5 -34.5t-34.5 -12.5h-47q-22 0 -34.5 12.5t-12.5 34.5z" />
<glyph unicode="G" horiz-adv-x="1292" d="M141 502v422q0 255 132 393.5t376 138.5q160 0 352 -49q37 -10 37 -42q0 -8 -2 -17l-8 -35q-7 -30 -38 -30q-10 0 -23 3q-181 43 -308 43q-106 0 -180 -33t-114.5 -93.5t-58 -134t-17.5 -167.5v-377q0 -94 17.5 -166.5t58 -133t114.5 -92.5t180 -32q54 0 115.5 8.5 t100 17t112.5 26.5v452q0 47 47 53l43 5q5 1 10 1q37 0 37 -45v-516q0 -22 -14.5 -38.5t-38.5 -22.5q-243 -68 -422 -68q-245 0 -376.5 136.5t-131.5 392.5z" />
<glyph unicode="H" horiz-adv-x="1384" d="M201 47v1335q0 22 12.5 35t34.5 13h47q22 0 34.5 -13t12.5 -35v-585h698v585q0 22 14 35t36 13h47q22 0 34.5 -13t12.5 -35v-1335q0 -22 -12.5 -34.5t-34.5 -12.5h-47q-22 0 -36 13t-14 34v623h-698v-623q0 -22 -12.5 -34.5t-34.5 -12.5h-47q-22 0 -34.5 12.5t-12.5 34.5 z" />
<glyph unicode="I" horiz-adv-x="542" d="M201 47v1335q0 22 12.5 35t34.5 13h47q22 0 34.5 -13t12.5 -35v-1335q0 -22 -12.5 -34.5t-34.5 -12.5h-47q-22 0 -34.5 12.5t-12.5 34.5z" />
<glyph unicode="J" horiz-adv-x="987" d="M98 66l6 28q9 36 41 36q8 0 19 -3q91 -27 192 -27q71 0 124 18t85.5 48.5t52.5 77t27.5 97t7.5 114.5v927q0 22 12.5 35t34.5 13h48q22 0 35.5 -13t13.5 -35v-948q0 -81 -14.5 -149t-48 -126.5t-84.5 -99t-126 -63.5t-170 -23q-124 0 -223 31q-21 6 -30 22q-5 10 -5 23 q0 8 2 17z" />
<glyph unicode="K" horiz-adv-x="1226" d="M201 47v1335q0 22 12.5 35t34.5 13h47q22 0 34.5 -13t12.5 -35v-602l258 15l268 591q20 44 64 44h61q22 0 30 -16.5t-3 -39.5l-268 -588q72 -14 114.5 -62t73.5 -136l182 -539q2 -8 2 -15q0 -12 -6 -20q-10 -14 -33 -14h-53q-46 0 -59 45l-168 504q-23 65 -59 95 q-33 27 -89 26h-12l-303 -19v-604q0 -22 -12.5 -34.5t-34.5 -12.5h-47q-22 0 -34.5 12.5t-12.5 34.5z" />
<glyph unicode="L" horiz-adv-x="1122" d="M201 47v1335q0 22 12.5 35t34.5 13h47q22 0 34.5 -13t12.5 -35v-1255h625q22 0 35.5 -12.5t13.5 -34.5v-33q0 -22 -13.5 -34.5t-35.5 -12.5h-719q-22 0 -34.5 12.5t-12.5 34.5z" />
<glyph unicode="M" horiz-adv-x="1765" d="M119 47l188 1335q1 23 16 35.5t37 12.5h80q48 0 60 -46l295 -1038q18 -65 36.5 -90t51.5 -25t51.5 25t36.5 90l293 1036q15 48 61 48h80q22 0 36 -13t17 -35l187 -1335q1 -5 1 -9q0 -16 -9 -26q-11 -12 -33 -12h-48q-22 0 -35.5 12.5t-15.5 32.5l-133 952 q-15 125 -24 240q-17 -81 -60 -240l-184 -673q-30 -110 -81 -166t-140 -56t-140 56t-81 166l-187 677q-50 195 -59 240q-12 -167 -25 -254l-131 -940q-3 -22 -17 -34.5t-36 -12.5h-45q-22 0 -34 12q-10 11 -9 29v6z" />
<glyph unicode="N" horiz-adv-x="1359" d="M201 47v1335q0 22 12.5 35t34.5 13h45q40 0 69 -46l664 -1132q-8 176 -8 250v880q0 22 12.5 35t34.5 13h47q22 0 34.5 -13t12.5 -35v-1335q0 -22 -12.5 -34.5t-34.5 -12.5h-45q-44 0 -72 49l-661 1127q8 -172 8 -248v-881q0 -22 -12.5 -34.5t-34.5 -12.5h-47 q-22 0 -34.5 12.5t-12.5 34.5z" />
<glyph unicode="O" d="M141 553v326q0 262 143.5 419.5t391.5 157.5t391 -157.5t143 -419.5v-326q0 -267 -142.5 -423.5t-391.5 -156.5t-392 156.5t-143 423.5zM289 573q0 -79 11.5 -146.5t40 -128.5t71.5 -104t110.5 -68.5t153.5 -25.5t153.5 25.5t110.5 68.5t71.5 104t40 128.5t11.5 146.5 v283q0 78 -11.5 145.5t-40 129t-71.5 104.5t-110.5 68.5t-153.5 25.5t-153.5 -25.5t-110.5 -68.5t-71.5 -104.5t-40 -129t-11.5 -145.5v-283z" />
<glyph unicode="P" horiz-adv-x="1159" d="M201 47v1335q0 22 12.5 35t34.5 13h338q218 0 341.5 -127t123.5 -316q0 -188 -123 -313t-342 -125h-244v-502q0 -22 -12.5 -34.5t-34.5 -12.5h-47q-22 0 -34.5 12.5t-12.5 34.5zM342 676h240q84 0 148 27t100.5 72.5t54.5 99t18 112.5q0 61 -18 115t-54.5 99.5t-100.5 72 t-148 26.5h-240v-624z" />
<glyph unicode="Q" d="M141 553v326q0 262 143.5 419.5t391.5 157.5t391 -157.5t143 -419.5v-326q0 -206 -87 -347.5t-246 -197.5l102 -280q5 -14 5 -25q0 -25 -26 -35l-40 -14q-9 -3 -17 -3q-11 0 -20 5q-17 8 -25 27l-111 294q-40 -4 -69 -4q-249 0 -392 156.5t-143 423.5zM289 573 q0 -79 11.5 -146.5t40 -128.5t71.5 -104t110.5 -68.5t153.5 -25.5t153.5 25.5t110.5 68.5t71.5 104t40 128.5t11.5 146.5v283q0 78 -11.5 145.5t-40 129t-71.5 104.5t-110.5 68.5t-153.5 25.5t-153.5 -25.5t-110.5 -68.5t-71.5 -104.5t-40 -129t-11.5 -145.5v-283z" />
<glyph unicode="R" horiz-adv-x="1191" d="M201 47v1286q0 22 13 39t36 23q189 61 383 61q105 0 190 -36.5t139 -98.5t82.5 -141t28.5 -166q0 -61 -18.5 -124t-56 -124t-105 -107.5t-156.5 -64.5l273 -541q10 -20 1 -36.5t-32 -16.5h-57q-43 0 -62 43l-268 535h-250v-531q0 -22 -12.5 -34.5t-34.5 -12.5h-47 q-22 0 -34.5 12.5t-12.5 34.5zM342 700h268q149 0 232.5 92t83.5 222q0 61 -16 115.5t-49.5 100t-92 72.5t-135.5 27q-135 0 -291 -43v-586z" />
<glyph unicode="S" horiz-adv-x="1073" d="M127 90l6 33q4 23 20.5 31t39.5 2q63 -18 93 -26t95 -19t121 -11q153 0 228 72t75 197q0 71 -37 126t-96 90.5t-130 67.5t-142 68t-130 80t-96 114.5t-37 161.5q0 177 118.5 278t315.5 101q137 0 281 -53q38 -12 38 -44q0 -9 -3 -20l-8 -28q-11 -32 -39 -32q-11 0 -25 5 q-147 45 -244 45q-138 0 -211 -65.5t-73 -186.5q0 -51 23 -92.5t61.5 -72t88.5 -57.5t105 -52.5t110.5 -53t105.5 -63.5t88.5 -79t61.5 -104t23 -134q0 -181 -120.5 -288.5t-331.5 -107.5q-139 0 -336 56q-40 10 -40 46q0 7 1 15z" />
<glyph unicode="T" horiz-adv-x="1124" d="M98 1350v32q0 22 12.5 35t34.5 13h834q22 0 34.5 -13t12.5 -35v-32q0 -22 -12.5 -34.5t-34.5 -12.5h-346v-1256q0 -22 -12.5 -34.5t-34.5 -12.5h-47q-22 0 -34.5 12.5t-12.5 34.5v1256h-347q-22 0 -34.5 12.5t-12.5 34.5z" />
<glyph unicode="U" horiz-adv-x="1355" d="M170 518v864q0 22 12.5 35t34.5 13h47q22 0 34.5 -13t12.5 -35v-901q0 -75 22 -142t65 -121.5t115 -86t165 -31.5q91 0 162.5 32t114.5 86t65 121t22 142v901q0 22 14 35t36 13h47q22 0 34.5 -13t12.5 -35v-864q0 -260 -132 -402.5t-376 -142.5q-242 0 -375 142t-133 403 z" />
<glyph unicode="V" horiz-adv-x="1288" d="M98 1378q-4 10 -4 19q0 11 6 19q10 14 33 14h51q44 0 56 -39l331 -996q31 -91 72 -260q39 159 72 260l332 994q12 41 57 41h51q23 0 33 -14q5 -8 5 -21q0 -9 -3 -19l-445 -1327q-6 -23 -23.5 -36t-39.5 -13h-78q-47 0 -63 49z" />
<glyph unicode="W" horiz-adv-x="1814" d="M113 1380q-1 6 -1 12q0 14 8 24q10 14 32 14h47q45 0 55 -46l188 -913q18 -89 43 -287q24 168 52 287l153 637q26 106 77.5 162.5t139.5 56.5t139.5 -56.5t77.5 -162.5l152 -637q24 -104 51 -289q21 171 45 289l189 913q10 46 55 46h47q23 0 33 -14q8 -10 7 -24 q0 -6 -1 -12l-277 -1333q-9 -47 -57 -47h-74q-48 0 -57 45l-244 1038q-14 63 -31.5 87t-54.5 24t-54.5 -24t-33.5 -87l-241 -1038q-9 -45 -58 -45h-74q-47 0 -57 47z" />
<glyph unicode="X" horiz-adv-x="1271" d="M117 16q-3 6 -3 13q0 10 7 22l432 699l-385 628q-12 22 -6 37t28 15h66q43 0 66 -41l315 -512l315 512q25 41 66 41h61q21 0 28.5 -16t-3.5 -36l-385 -624l432 -703q7 -12 7 -22q0 -7 -4 -13q-8 -16 -28 -16h-61q-43 0 -68 39l-364 590l-363 -590q-25 -39 -67 -39h-58 q-21 0 -28 16z" />
<glyph unicode="Y" horiz-adv-x="1175" d="M102 1376q-1 7 -1 13q0 16 7 27q11 14 33 14h45q46 0 56 -50l69 -354q8 -39 14 -65t17 -61t24 -58.5t34 -48.5t46.5 -40t61.5 -24.5t80 -9.5q51 0 91.5 11t68 35t46.5 48.5t33 65t21 70t16 77.5l68 352q5 24 19.5 38t35.5 14h47q22 0 32 -14q8 -11 8 -26q0 -6 -1 -12 l-72 -381q-13 -63 -29 -113.5t-43.5 -102t-63 -87.5t-88.5 -62t-120 -34v-551q0 -22 -12.5 -34.5t-34.5 -12.5h-47q-22 0 -34.5 12.5t-12.5 34.5v551q-67 8 -120 34.5t-88.5 63t-63 88t-43 101.5t-27.5 112z" />
<glyph unicode="Z" horiz-adv-x="1126" d="M113 47v39q0 33 24 72l686 1145h-639q-22 0 -35.5 12.5t-13.5 34.5v32q0 22 13.5 35t35.5 13h758q22 0 34.5 -13t12.5 -35v-39q0 -32 -26 -73l-684 -1143h688q22 0 34.5 -12.5t12.5 -34.5v-33q0 -22 -12.5 -34.5t-34.5 -12.5h-807q-22 0 -34.5 12.5t-12.5 34.5z" />
<glyph unicode="[" horiz-adv-x="569" d="M131 -389v1939q0 22 13.5 34.5t35.5 12.5h262q22 0 34.5 -12.5t12.5 -34.5v-30q0 -22 -12.5 -34.5t-34.5 -12.5h-170v-1784h170q22 0 34.5 -12.5t12.5 -34.5v-31q0 -22 -12.5 -34.5t-34.5 -12.5h-262q-22 0 -35.5 12.5t-13.5 34.5z" />
<glyph unicode="\" horiz-adv-x="886" d="M164 1470q-12 48 35 48h43q45 0 57 -45l424 -1502q12 -47 -35 -47h-41q-45 0 -57 45z" />
<glyph unicode="]" horiz-adv-x="612" d="M82 -358q0 22 13.5 34.5t35.5 12.5h168v1784h-168q-22 0 -35.5 12.5t-13.5 34.5v30q0 22 13.5 34.5t35.5 12.5h262q22 0 34.5 -12.5t12.5 -34.5v-1939q0 -22 -12.5 -34.5t-34.5 -12.5h-262q-22 0 -35.5 12.5t-13.5 34.5v31z" />
<glyph unicode="^" horiz-adv-x="1200" d="M195.5 698.5q-7.5 14.5 1.5 36.5l309 649q22 46 67 46h54q45 0 67 -46l310 -649q10 -22 1.5 -36.5t-30.5 -14.5h-57q-40 0 -58 43l-260 582l-260 -582q-16 -43 -57 -43h-58q-22 0 -29.5 14.5z" />
<glyph unicode="_" horiz-adv-x="1026" d="M0 -254q0 22 12.5 34.5t34.5 12.5h930q22 0 34.5 -12.5t12.5 -34.5v-31q0 -22 -12.5 -34.5t-34.5 -12.5h-930q-22 0 -34.5 12.5t-12.5 34.5v31z" />
<glyph unicode="`" horiz-adv-x="704" d="M170 1340q-6 15 2 34l21 43q7 17 22.5 23t32.5 -2l268 -125q17 -6 23.5 -22t-0.5 -31l-13 -25q-15 -34 -53 -21l-278 105q-19 6 -25 21z" />
<glyph unicode="a" horiz-adv-x="1050" d="M102 279q0 156 119.5 229.5t329.5 73.5h192v100q0 138 -57.5 203t-193.5 65q-112 0 -240 -35q-10 -3 -18 -3q-29 0 -39 36l-7 27q-3 11 -3 19q0 30 36 40q139 41 271 41q193 0 292 -99t99 -267v-662q0 -47 -43 -47h-23q-43 0 -49 41l-10 65q-147 -133 -322 -133 q-155 0 -244.5 84.5t-89.5 221.5zM246 279q0 -83 52 -132t153 -49q78 0 154.5 33.5t137.5 91.5v244h-184q-152 0 -232.5 -42.5t-80.5 -145.5z" />
<glyph unicode="b" horiz-adv-x="1132" d="M176 47v1393q0 22 13.5 34.5t35.5 12.5h43q22 0 34.5 -12.5t12.5 -34.5v-486q158 121 306 121q179 0 279.5 -111t100.5 -307v-266q0 -195 -101 -306.5t-279 -111.5q-153 0 -318 131l-10 -65q-3 -39 -47 -39h-27q-43 0 -43 47zM315 223q167 -125 287 -125q135 0 196.5 80 t61.5 246v201q0 166 -61.5 245.5t-196.5 79.5q-71 0 -135.5 -32t-151.5 -95v-600z" />
<glyph unicode="c" horiz-adv-x="983" d="M131 438v176q0 213 109.5 337t308.5 124q126 0 270 -37q43 -13 43 -46q0 -7 -2 -15l-8 -29q-8 -33 -43 -33q-10 0 -23 3q-110 32 -233 32q-281 0 -281 -350v-145q0 -357 281 -357q109 0 238 35q12 3 21 3q29 0 40 -32l8 -30q3 -10 3 -18q0 -33 -42 -44q-156 -39 -272 -39 q-199 0 -308.5 126t-109.5 339z" />
<glyph unicode="d" horiz-adv-x="1132" d="M131 391v266q0 196 101 307t280 111q78 0 149.5 -31t153.5 -94v490q0 22 13.5 34.5t35.5 12.5h43q22 0 34.5 -12.5t12.5 -34.5v-1393q0 -47 -43 -47h-24q-44 0 -47 39l-11 70q-85 -67 -160.5 -101.5t-156.5 -34.5q-178 0 -279.5 111.5t-101.5 306.5zM272 424 q0 -165 62 -245.5t194 -80.5q72 0 141 35t146 94v590q-166 133 -287 133q-132 0 -194 -79.5t-62 -245.5v-201z" />
<glyph unicode="e" horiz-adv-x="1071" d="M131 391v264q0 112 47.5 206.5t142.5 154t220 59.5q94 0 172.5 -35.5t129.5 -94.5t79 -134t28 -156v-114q0 -17 -12 -29t-27 -12h-641v-109q0 -41 8.5 -80t29.5 -78.5t52.5 -68.5t81 -47.5t111.5 -18.5q109 0 268 41q14 4 25 4q31 0 37 -30l8 -35q2 -8 2 -16 q0 -30 -39 -42q-169 -47 -301 -47q-100 0 -181.5 35t-133.5 93.5t-79.5 133t-27.5 156.5zM270 610h541v52q0 53 -15 102t-45.5 91.5t-84.5 68.5t-125 26t-125 -25.5t-85 -68t-46 -92t-15 -102.5v-52z" />
<glyph unicode="f" horiz-adv-x="626" d="M29 989v19q0 41 47 41h125v155q0 143 84.5 226t224.5 83q67 0 119 -10q37 -10 37 -40q0 -7 -2 -15l-5 -31q-6 -38 -42 -38q-5 0 -11 1q-52 9 -94 9q-172 0 -172 -199v-141h201q47 0 47 -45v-21q0 -45 -47 -45h-201v-891q0 -22 -13.5 -34.5t-35.5 -12.5h-43 q-22 0 -34.5 12.5t-12.5 34.5v891l-121 8q-27 3 -39 12.5t-12 30.5z" />
<glyph unicode="g" horiz-adv-x="1132" d="M131 418v239q0 196 101 307t280 111q148 0 317 -137l11 72q3 39 47 39h26q41 0 41 -48v-1083q0 -156 -87 -243t-249 -87h-225q-44 0 -53 41l-6 33q-1 7 -1 13q0 36 42 36h243q94 0 145.5 56t51.5 149v201q-150 -117 -303 -117q-178 0 -279.5 111t-101.5 307zM272 451 q0 -166 62 -246t194 -80q73 0 139.5 30t147.5 89v573q-165 133 -287 133q-132 0 -194 -79.5t-62 -245.5v-174z" />
<glyph unicode="h" horiz-adv-x="1138" d="M176 47v1393q0 22 13.5 34.5t35.5 12.5h43q22 0 34.5 -12.5t12.5 -34.5v-492q170 127 312 127q169 0 257.5 -94.5t88.5 -257.5v-676q0 -22 -12.5 -34.5t-34.5 -12.5h-45q-22 0 -34.5 12.5t-12.5 34.5v643q0 132 -51 196t-175 64q-72 0 -140.5 -33t-152.5 -96v-774 q0 -22 -12.5 -34.5t-34.5 -12.5h-43q-22 0 -35.5 12.5t-13.5 34.5z" />
<glyph unicode="i" horiz-adv-x="493" d="M156 1343q0 38 26 63.5t64 25.5q40 0 67 -25.5t27 -63.5q0 -39 -27.5 -66.5t-66.5 -27.5q-38 0 -64 27.5t-26 66.5zM176 47v954q0 22 13.5 35t35.5 13h43q22 0 34.5 -13t12.5 -35v-954q0 -22 -12.5 -34.5t-34.5 -12.5h-43q-22 0 -35.5 12.5t-13.5 34.5z" />
<glyph unicode="j" horiz-adv-x="493" d="M-127 -375l6 33q6 37 39 37q6 0 14 -2q60 -6 88 -6q76 0 116 46.5t40 155.5v1112q0 22 13.5 35t35.5 13h43q22 0 34.5 -13t12.5 -35v-1130q0 -142 -77.5 -225.5t-214.5 -83.5q-65 0 -113 10q-21 4 -30 19q-8 11 -8 25q0 4 1 9zM156 1343q0 38 26 63.5t64 25.5 q40 0 67 -25.5t27 -63.5q0 -39 -27.5 -66.5t-66.5 -27.5q-38 0 -64 27.5t-26 66.5z" />
<glyph unicode="k" horiz-adv-x="999" d="M176 47v1393q0 22 13.5 34.5t35.5 12.5h43q22 0 34.5 -12.5t12.5 -34.5v-842l222 57q73 20 104 97l102 256q17 41 62 41h49q23 0 31.5 -14t-0.5 -36l-121 -294q-48 -111 -141 -150l286 -502q7 -12 7 -23q0 -8 -3 -14q-8 -16 -30 -16h-58q-43 0 -65 39l-264 475l-181 -47 v-420q0 -22 -12.5 -34.5t-34.5 -12.5h-43q-22 0 -35.5 12.5t-13.5 34.5z" />
<glyph unicode="l" horiz-adv-x="495" d="M178 168v1272q0 22 12.5 34.5t34.5 12.5h43q22 0 35.5 -12.5t13.5 -34.5v-1258q0 -59 29 -78q23 -13 23 -37q0 -7 -2 -16l-9 -33q-6 -37 -40 -37q-6 0 -13 1q-24 5 -42 13t-39.5 27t-33.5 56t-12 90z" />
<glyph unicode="m" horiz-adv-x="1751" d="M176 47v954q0 22 12 35t33 13h23q43 0 49 -43l10 -68q156 137 301 137q218 0 299 -153q180 153 336 153q169 0 257.5 -94.5t88.5 -257.5v-676q0 -22 -12.5 -34.5t-34.5 -12.5h-45q-22 0 -34.5 12.5t-12.5 34.5v641q0 133 -50.5 197.5t-174.5 64.5q-130 0 -281 -133 q10 -52 10 -96v-674q0 -22 -12.5 -34.5t-34.5 -12.5h-45q-22 0 -34.5 12.5t-12.5 34.5v641q0 133 -50.5 197.5t-174.5 64.5q-118 0 -271 -133v-770q0 -22 -12.5 -34.5t-34.5 -12.5h-43q-22 0 -35.5 12.5t-13.5 34.5z" />
<glyph unicode="n" horiz-adv-x="1138" d="M176 47v954q0 22 12 35t33 13h23q43 0 49 -43l10 -68q170 137 324 137q169 0 257.5 -94.5t88.5 -257.5v-676q0 -22 -12.5 -34.5t-34.5 -12.5h-45q-22 0 -34.5 12.5t-12.5 34.5v641q0 132 -51 197t-175 65q-73 0 -140 -33t-153 -98v-772q0 -22 -12.5 -34.5t-34.5 -12.5 h-43q-22 0 -35.5 12.5t-13.5 34.5z" />
<glyph unicode="o" horiz-adv-x="1116" d="M131 432v186q0 213 114 335t314 122q199 0 312.5 -122t113.5 -335v-186q0 -214 -113.5 -336.5t-312.5 -122.5q-201 0 -314.5 122.5t-113.5 336.5zM272 449q0 -351 287 -351q285 0 285 351v155q0 346 -285 346q-287 0 -287 -346v-155z" />
<glyph unicode="p" horiz-adv-x="1132" d="M176 -365v1366q0 22 12 35t33 13h23q46 0 49 -41l10 -70q166 137 318 137q179 0 279.5 -111t100.5 -307v-266q0 -195 -101 -306.5t-279 -111.5q-76 0 -148.5 32t-157.5 93v-463q0 -22 -12.5 -34.5t-34.5 -12.5h-43q-22 0 -35.5 12.5t-13.5 34.5zM315 227q60 -44 96 -66.5 t88.5 -42.5t102.5 -20q133 0 195.5 80.5t62.5 245.5v201q0 165 -62 245t-196 80q-118 0 -287 -133v-590z" />
<glyph unicode="q" horiz-adv-x="1122" d="M131 391v266q0 196 101 307t280 111q148 0 317 -137l11 68q3 43 49 43h22q43 0 43 -48v-1366q0 -22 -12.5 -34.5t-34.5 -12.5h-43q-22 0 -35.5 12.5t-13.5 34.5v463q-164 -125 -303 -125q-178 0 -279.5 111.5t-101.5 306.5zM272 424q0 -165 62 -245.5t194 -80.5 q72 0 136.5 32.5t150.5 96.5v590q-80 61 -148 97t-139 36q-132 0 -194 -80.5t-62 -244.5v-201z" />
<glyph unicode="r" horiz-adv-x="743" d="M176 47v954q0 22 12 35t33 13h25q40 0 47 -45l12 -109q53 76 130.5 128t154.5 53q19 0 32 -2.5t27.5 -8t20.5 -19.5q6 -12 6 -30v-6q-1 -13 -4 -22.5t-6 -16t-9.5 -11t-11 -6.5t-14 -3t-14.5 -1.5t-17 0t-18 0.5q-62 0 -136.5 -57t-130.5 -135v-711q0 -22 -12.5 -34.5 t-34.5 -12.5h-43q-22 0 -35.5 12.5t-13.5 34.5z" />
<glyph unicode="s" horiz-adv-x="874" d="M115 78l6 28q5 22 20 30t37 1q139 -39 228 -39q212 0 212 176q0 45 -27.5 81t-71 60.5t-96 48t-105.5 51t-96.5 61.5t-71 88t-27.5 122q0 133 96.5 211t249.5 78q114 0 209 -31q33 -9 33 -41q0 -8 -2 -18l-9 -27q-11 -33 -42 -33q-9 0 -21 3q-90 22 -166 22 q-97 0 -149 -43.5t-52 -120.5q0 -43 27.5 -77.5t71 -59.5t96.5 -49t106 -52.5t96.5 -63.5t71 -89t27.5 -121q0 -138 -97 -219.5t-261 -81.5q-127 0 -263 43q-32 9 -32 42q0 9 2 20z" />
<glyph unicode="t" horiz-adv-x="714" d="M29 991v15q0 43 47 43h125v297q0 22 12.5 34.5t34.5 12.5h43q22 0 35.5 -12.5t13.5 -34.5v-297h209q22 0 35.5 -12t13.5 -33v-21q0 -21 -13.5 -33t-35.5 -12h-209v-639q0 -201 172 -201q56 0 92 8q7 1 13 1q35 0 40 -33l7 -35q2 -7 2 -14q0 -12 -6 -22q-10 -15 -31 -19 q-57 -11 -121 -11q-140 0 -223.5 82t-83.5 226v657l-127 8q-24 3 -34.5 13.5t-10.5 31.5z" />
<glyph unicode="u" horiz-adv-x="1138" d="M166 328v673q0 22 13.5 35t35.5 13h43q22 0 34.5 -13t12.5 -35v-641q0 -134 50.5 -198t176.5 -64q73 0 141.5 33.5t149.5 97.5v772q0 22 12.5 35t34.5 13h45q22 0 35 -13t13 -35v-954q0 -47 -45 -47h-21q-46 0 -51 39l-8 72q-171 -138 -324 -138q-169 0 -258.5 95.5 t-89.5 259.5z" />
<glyph unicode="v" horiz-adv-x="1017" d="M80 995q-4 11 -4 19q0 12 6 20q10 16 31 15h49q41 0 57 -45l211 -609q19 -55 78 -272q34 142 80 272l211 609q14 45 57 45h49q21 1 31 -15q5 -8 6 -20q0 -9 -4 -19l-330 -946q-17 -49 -63 -49h-74q-46 0 -61 49z" />
<glyph unicode="w" horiz-adv-x="1466" d="M82 997q-2 9 -2 16q0 13 6 22q10 14 33 14h49q45 0 57 -48l146 -598q41 -203 49 -251q12 49 37 145t28 106l154 523q12 45 61 45h66q49 0 61 -45l154 -523q23 -86 63 -251q9 45 27.5 133.5t24.5 117.5l145 598q12 48 57 48h50q22 0 32 -14q6 -9 6 -21q0 -8 -2 -17 l-241 -948q-11 -49 -60 -49h-69q-47 0 -60 49l-221 762l-221 -762q-14 -49 -59 -49h-70q-48 0 -59 49z" />
<glyph unicode="x" horiz-adv-x="989" d="M92 14q-4 6 -4 13q0 10 8 22l318 488l-297 458q-13 20 -6.5 37t28.5 17h58q41 0 67 -39l234 -359l233 359q23 39 68 39h53q22 0 29.5 -15.5t-4.5 -34.5l-302 -460l320 -490q7 -12 7 -23q0 -6 -2 -12q-8 -14 -30 -14h-61q-41 0 -66 43l-247 381l-256 -385q-22 -39 -62 -39 h-55q-22 0 -31 14z" />
<glyph unicode="y" horiz-adv-x="1044" d="M98 997v6q0 18 10 31q12 15 33 15h43q22 0 36.5 -13t17.5 -35l84 -645q29 -229 202 -229q96 0 215 61l43 811q5 50 54 50h38q23 0 36 -13q11 -10 11 -28q0 -4 -1 -9l-58 -1085q-8 -156 -90.5 -241t-247.5 -85h-143q-48 0 -51 43l-4 37v5q0 40 43 40h159q103 0 147 53 t50 156l10 133q-116 -55 -217 -55q-290 0 -334 340z" />
<glyph unicode="z" horiz-adv-x="970" d="M121 43v29q0 26 26 67l504 785h-461q-22 0 -35.5 13.5t-13.5 35.5v28q0 22 13.5 35t35.5 13h586q47 0 47 -41v-29q0 -25 -24 -68l-506 -788h510q22 0 34.5 -12.5t12.5 -34.5v-29q0 -22 -12.5 -34.5t-34.5 -12.5h-635q-47 0 -47 43z" />
<glyph unicode="{" horiz-adv-x="722" d="M80 553v18q2 25 16.5 39.5t35 19.5t43.5 16.5t43 28.5t33 58t13 103v385q0 178 79 269.5t267 98.5q31 0 31 -41v-45q0 -41 -31 -43q-65 -4 -107.5 -21t-64 -50t-29.5 -71.5t-8 -96.5v-385q0 -108 -34 -168t-115 -105q81 -46 115 -103.5t34 -166.5v-359q0 -58 8 -97.5 t30 -73t64.5 -51t108.5 -21.5q29 -3 29 -43v-43q0 -41 -31 -41q-187 6 -267.5 99.5t-80.5 270.5v359q0 72 -18 115.5t-44 58.5t-52.5 22.5t-46 21.5t-21.5 42z" />
<glyph unicode="|" horiz-adv-x="550" d="M207 -330v1796q0 22 13.5 34.5t35.5 12.5h39q22 0 35.5 -12.5t13.5 -34.5v-1796q0 -22 -13.5 -34.5t-35.5 -12.5h-39q-22 0 -35.5 12.5t-13.5 34.5z" />
<glyph unicode="}" horiz-adv-x="722" d="M80 -352q0 41 31 43q66 4 108 21.5t63.5 51t29 72.5t7.5 98v359q0 108 35 165.5t117 104.5q-82 46 -117 106t-35 167v385q0 58 -7.5 96.5t-28.5 71.5t-63 50t-107 21q-33 3 -33 43v45q0 41 33 41q188 -7 267 -98.5t79 -269.5v-385q0 -62 13 -103t33 -58t43 -28.5 t43 -16.5t34.5 -19.5t15.5 -39.5v-18q-1 -21 -12 -34t-27 -19t-35 -11.5t-38 -17.5t-35 -31t-25.5 -56.5t-9.5 -90.5v-359q0 -177 -80.5 -270.5t-267.5 -99.5q-31 0 -31 41v43z" />
<glyph unicode="~" horiz-adv-x="1245" d="M233 586q94 108 220 108q51 0 102.5 -19.5t86 -43t76 -43t75.5 -19.5q65 0 129 60q34 31 63 2l23 -25q28 -32 2 -63q-18 -21 -40.5 -41t-73 -43t-103.5 -23q-52 0 -103.5 19.5t-85.5 43t-75.5 43t-75.5 19.5q-67 0 -136 -65q-27 -28 -59 4l-20 24q-30 30 -5 62z" />
<glyph unicode="&#xa1;" horiz-adv-x="702" d="M252 1153q0 40 29.5 69t70.5 29q40 0 69.5 -29t29.5 -69q0 -41 -29.5 -69.5t-69.5 -28.5q-41 0 -70.5 28.5t-29.5 69.5zM264 -158l19 885q3 47 45 53l43 6q20 4 33.5 -7.5t13.5 -33.5l18 -903q1 -22 -11 -34.5t-34 -12.5h-80q-22 0 -34.5 12.5t-12.5 34.5z" />
<glyph unicode="&#xa2;" horiz-adv-x="995" d="M131 438v176q0 196 94 318t269 139v186q0 20 12.5 33t32.5 13h28q20 0 32.5 -13t12.5 -33v-186q79 -4 207 -33q52 -16 41 -61l-8 -29q-13 -43 -66 -30q-117 32 -233 32q-281 0 -281 -350v-145q0 -357 281 -357q109 0 238 35q48 13 59 -27l10 -34q13 -44 -39 -60 q-119 -30 -209 -37v-184q0 -20 -12.5 -32.5t-32.5 -12.5h-28q-20 0 -32.5 12.5t-12.5 32.5v186q-174 17 -268.5 140t-94.5 321z" />
<glyph unicode="&#xa3;" horiz-adv-x="1048" d="M113 664v24q0 19 11 30t30 11h86v309q0 204 112.5 311t302.5 107q127 0 240 -41q45 -12 33 -57l-10 -31q-5 -18 -22 -26t-38 -1q-111 31 -199 31q-141 0 -209.5 -75.5t-68.5 -237.5v-289h412q19 0 30 -11t11 -30v-24q0 -19 -11 -30t-30 -11h-412v-168q0 -181 -105 -332 h598q22 0 36 -13t14 -34v-29q0 -21 -14 -34t-36 -13h-700q-22 0 -34.5 12.5t-12.5 34.5v66q113 171 113 325v185h-86q-19 0 -30 11t-11 30z" />
<glyph unicode="&#xa4;" horiz-adv-x="1067" d="M158.5 860q0.5 18 15.5 31l29 29q33 32 65 0l76 -76q80 59 188 59q103 0 189 -61l78 78q33 32 65 0l27 -27q15 -13 15.5 -31t-13.5 -33l-78 -79q59 -91 59 -189q0 -105 -59 -188q10 -10 21.5 -21t20 -20.5t16 -17t11.5 -12.5l5 -5q32 -32 2 -66l-29 -28q-14 -13 -31 -13 t-32 13l-78 78q-88 -60 -189 -60q-105 0 -188 58l-76 -76q-34 -30 -63 2l-29 28q-15 13 -15 31t15 33l74 74q-57 85 -57 190q0 104 57 189l-78 79q-14 13 -13.5 31zM317 563q0 -88 64 -152.5t154 -64.5q87 0 151 62.5t64 152.5q0 89 -63.5 154t-154.5 65q-88 0 -151.5 -63.5 t-63.5 -153.5z" />
<glyph unicode="&#xa5;" horiz-adv-x="1034" d="M53.5 1414q7.5 16 28.5 16h49q43 0 62 -39l323 -635l326 635q20 39 61 39h49q20 0 27.5 -16t-2.5 -38l-338 -647h217q19 0 30 -11t11 -30v-26q0 -19 -11 -30t-30 -11h-268v-226h268q19 0 30 -11t11 -30v-26q0 -19 -11 -30t-30 -11h-268v-242q0 -20 -12.5 -32.5 t-32.5 -12.5h-51q-20 0 -33 12.5t-13 32.5v242h-266q-19 0 -30 11t-11 30v26q0 19 11 30t30 11h266v226h-266q-19 0 -30 11t-11 30v26q0 19 11 30t30 11h211l-334 647q-11 22 -3.5 38z" />
<glyph unicode="&#xa6;" horiz-adv-x="542" d="M203 225q0 20 12.5 32.5t32.5 12.5h47q20 0 32.5 -12.5t12.5 -32.5v-559q0 -20 -12.5 -32.5t-32.5 -12.5h-47q-20 0 -32.5 12.5t-12.5 32.5v559zM203 913v555q0 20 12.5 32.5t32.5 12.5h47q20 0 32.5 -12.5t12.5 -32.5v-555q0 -20 -12.5 -32.5t-32.5 -12.5h-47 q-20 0 -32.5 12.5t-12.5 32.5z" />
<glyph unicode="&#xa7;" horiz-adv-x="1028" d="M143 -92l7 33q9 43 59 30q155 -41 258 -41q123 0 185.5 58t62.5 159q0 58 -31 103.5t-80.5 75.5t-109.5 58t-119.5 59t-109 69.5t-80.5 100t-31 139.5q0 158 108 245q-39 67 -39 158q0 154 102 242t269 88q119 0 252 -45q41 -13 26 -58l-8 -30q-6 -20 -22 -27.5t-35 -1.5 q-118 35 -209 35q-109 0 -168 -52.5t-59 -150.5q0 -54 31 -96t80.5 -71.5t109.5 -57t120.5 -60t110 -72.5t80.5 -102.5t31 -142.5q0 -158 -109 -250q39 -67 39 -156q0 -157 -107.5 -250.5t-287.5 -93.5q-141 0 -289 47q-22 6 -32 22t-5 36zM301 752q0 -53 28.5 -94t78.5 -71 t102.5 -55t116 -58.5t104.5 -67.5q53 53 53 147q0 56 -27.5 99t-76.5 74t-100.5 55t-115 55.5t-104.5 62.5q-59 -53 -59 -147z" />
<glyph unicode="&#xa8;" horiz-adv-x="833" d="M154 1325q0 38 27.5 66t64.5 28q38 0 65 -28t27 -66q0 -37 -27 -64.5t-65 -27.5q-37 0 -64.5 27.5t-27.5 64.5zM496 1325q0 38 27 66t65 28q37 0 64.5 -28t27.5 -66q0 -37 -27.5 -64.5t-64.5 -27.5q-38 0 -65 27.5t-27 64.5z" />
<glyph unicode="&#xa9;" horiz-adv-x="1648" d="M141 702q0 146 47 273.5t132.5 222.5t216 150t288.5 55t288 -55t215.5 -150t132 -222.5t46.5 -273.5q0 -147 -46.5 -274.5t-132 -223t-215.5 -150t-288 -54.5t-288.5 54.5t-216 150t-132.5 223t-47 274.5zM250 702q0 -126 37.5 -234.5t108 -190.5t181 -128.5t248.5 -46.5 q137 0 247 46.5t181 128.5t108.5 190.5t37.5 234.5t-37.5 234.5t-108.5 189.5t-181 127.5t-247 46.5q-138 0 -248.5 -46.5t-181 -127.5t-108 -189.5t-37.5 -234.5zM539 586v233q0 122 77.5 192t204.5 70q83 0 168 -26q40 -12 31 -51l-8 -27q-9 -35 -51 -23q-83 19 -138 19 q-166 0 -166 -176v-191q0 -176 166 -176q83 0 140 21q41 9 51 -29l4 -19q6 -22 0 -34t-27 -19q-67 -26 -172 -26q-126 0 -203 69.5t-77 192.5z" />
<glyph unicode="&#xaa;" horiz-adv-x="751" d="M96 893q0 217 320 217h123v68q0 90 -38 133t-128 43q-79 0 -160 -23q-38 -10 -49 27l-6 20q-10 38 26 49q93 29 189 29q138 0 209 -71.5t71 -192.5v-463q0 -41 -35 -41h-20q-36 0 -39 31l-8 41q-97 -90 -217 -90q-110 0 -174 60.5t-64 162.5zM217 893q0 -56 33 -89.5 t98 -33.5q102 0 191 82v168h-115q-100 0 -153.5 -29t-53.5 -98z" />
<glyph unicode="&#xab;" horiz-adv-x="1110" d="M186 514q-28 39 0 78l244 301q12 17 33.5 20.5t36.5 -8.5l30 -22q15 -12 17 -32.5t-10 -35.5l-213 -262l215 -264q12 -15 9 -35t-20 -33l-30 -20q-15 -12 -35.5 -7.5t-32.5 19.5zM543 514q-28 39 0 78l243 301q12 17 33.5 20.5t36.5 -8.5l31 -22q15 -12 16.5 -32.5 t-10.5 -35.5l-213 -262l215 -264q12 -15 9.5 -35t-19.5 -33l-31 -20q-15 -12 -35.5 -7.5t-32.5 19.5z" />
<glyph unicode="&#xac;" horiz-adv-x="1191" d="M207 543v37q0 20 12.5 32.5t32.5 12.5h688q20 0 32.5 -12.5t12.5 -32.5v-392q0 -21 -12 -33t-33 -12h-39q-21 0 -33 12t-12 33v310h-604q-20 0 -32.5 12.5t-12.5 32.5z" />
<glyph unicode="&#xad;" horiz-adv-x="798" d="M90 563v33q0 20 12.5 32.5t32.5 12.5h527q20 0 32.5 -12.5t12.5 -32.5v-33q0 -21 -12 -33t-33 -12h-527q-21 0 -33 12t-12 33z" />
<glyph unicode="&#xae;" horiz-adv-x="1648" d="M141 702q0 146 47 273.5t132.5 222.5t216 150t288.5 55t288 -55t215.5 -150t132 -222.5t46.5 -273.5q0 -147 -46.5 -274.5t-132 -223t-215.5 -150t-288 -54.5t-288.5 54.5t-216 150t-132.5 223t-47 274.5zM250 702q0 -126 37.5 -234.5t108 -190.5t181 -128.5t248.5 -46.5 q137 0 247 46.5t181 128.5t108.5 190.5t37.5 234.5t-37.5 234.5t-108.5 189.5t-181 127.5t-247 46.5q-138 0 -248.5 -46.5t-181 -127.5t-108 -189.5t-37.5 -234.5zM582 375v612q0 44 43 57q137 37 209 37q115 0 181 -67t66 -166q0 -72 -38 -130.5t-105 -82.5l115 -256 q7 -19 -0.5 -32t-26.5 -13h-41q-37 0 -55 35l-109 245h-121v-239q0 -19 -11 -30t-30 -11h-36q-19 0 -30 11t-11 30zM700 717h131q65 0 97.5 37.5t32.5 93.5q0 50 -33 87.5t-97 37.5q-49 0 -131 -23v-233z" />
<glyph unicode="&#xaf;" horiz-adv-x="757" d="M152 1311v35q0 19 11 29.5t30 10.5h370q19 0 30 -10.5t11 -29.5v-35q0 -19 -11 -30t-30 -11h-370q-19 0 -30 11t-11 30z" />
<glyph unicode="&#xb0;" horiz-adv-x="827" d="M168 1212q0 100 72.5 172t173.5 72q100 0 171.5 -72t71.5 -172q0 -101 -71.5 -173t-171.5 -72q-101 0 -173.5 72t-72.5 173zM274 1212q0 -58 40.5 -98.5t99.5 -40.5q57 0 98 40.5t41 98.5q0 57 -41 98.5t-98 41.5q-58 0 -99 -41.5t-41 -98.5z" />
<glyph unicode="&#xb1;" horiz-adv-x="1288" d="M193 6v39q0 20 12.5 32.5t32.5 12.5h811q21 0 33 -12t12 -33v-39q0 -21 -12 -33t-33 -12h-811q-20 0 -32.5 12.5t-12.5 32.5zM193 625v39q0 20 12.5 32.5t32.5 12.5h342v319q0 20 12.5 32.5t32.5 12.5h39q21 0 33 -12t12 -33v-319h340q21 0 33 -12t12 -33v-39 q0 -21 -12 -33t-33 -12h-340v-322q0 -21 -12 -33t-33 -12h-39q-20 0 -32.5 12.5t-12.5 32.5v322h-342q-20 0 -32.5 12.5t-12.5 32.5z" />
<glyph unicode="&#xb4;" horiz-adv-x="704" d="M163 1291q6 16 23 22l267 123q40 16 57 -19l18 -43q20 -42 -20 -55l-279 -105q-41 -13 -53 21l-12 25q-7 15 -1 31z" />
<glyph unicode="&#xb5;" horiz-adv-x="1142" d="M166 -365v1366q0 22 13.5 35t35.5 13h43q22 0 34.5 -13t12.5 -35v-641q0 -134 50.5 -198t176.5 -64q73 0 141.5 33.5t149.5 97.5v772q0 22 12.5 35t34.5 13h45q22 0 35 -13t13 -35v-954q0 -47 -45 -47h-23q-43 0 -49 41l-8 70q-171 -138 -324 -138q-134 0 -209 72v-410 q0 -22 -12.5 -34.5t-34.5 -12.5h-43q-22 0 -35.5 12.5t-13.5 34.5z" />
<glyph unicode="&#xb6;" horiz-adv-x="1200" d="M68 1014q0 171 126.5 293.5t307.5 122.5h477q20 0 32.5 -13t12.5 -33v-1570q0 -20 -12.5 -32.5t-32.5 -12.5h-45q-20 0 -32.5 12.5t-12.5 32.5v1480h-256v-1480q0 -20 -12.5 -32.5t-32.5 -12.5h-45q-21 0 -33 12t-12 33v782q-187 9 -308.5 128.5t-121.5 289.5z" />
<glyph unicode="&#xb7;" horiz-adv-x="485" d="M152 621q0 38 26.5 65t63.5 27t63.5 -27t26.5 -65t-26.5 -64.5t-63.5 -26.5t-63.5 26.5t-26.5 64.5z" />
<glyph unicode="&#xb8;" horiz-adv-x="501" d="M92 -383l4 27q6 35 45 30q16 -2 39 -2q58 0 83.5 33.5t25.5 101.5v193h121v-215q0 -61 -19.5 -106t-52 -69t-69.5 -35t-79 -11q-33 0 -61 4q-40 9 -37 49z" />
<glyph unicode="&#xba;" horiz-adv-x="802" d="M96 999v127q0 154 81.5 242t223.5 88q141 0 222.5 -88t81.5 -242v-127q0 -153 -81 -241t-223 -88t-223.5 88t-81.5 241zM215 1010q0 -240 186 -240q187 0 187 240v104q0 240 -187 240q-99 0 -142.5 -61t-43.5 -179v-104z" />
<glyph unicode="&#xbb;" horiz-adv-x="1110" d="M203.5 254q-2.5 20 9.5 35l215 264l-213 262q-12 15 -10.5 35.5t16.5 32.5l31 22q15 12 36.5 8.5t33.5 -20.5l243 -301q28 -39 0 -78l-243 -301q-12 -15 -32.5 -19.5t-35.5 7.5l-31 20q-17 13 -19.5 33zM560 254q-3 20 9 35l215 264l-213 262q-12 15 -10 35.5t17 32.5 l30 22q15 12 36.5 8.5t33.5 -20.5l244 -301q28 -39 0 -78l-244 -301q-12 -15 -32.5 -19.5t-35.5 7.5l-30 20q-17 13 -20 33z" />
<glyph unicode="&#xbf;" horiz-adv-x="931" d="M141 82q0 50 15.5 96t41 82.5t56 73t61 77.5t56 86t42 107.5t17.5 134.5q1 21 12 31.5t33 13.5l51 4q23 2 33.5 -9t9.5 -36q-1 -81 -17.5 -151t-42 -118.5t-55.5 -90.5t-60 -77t-55 -68t-40.5 -72t-15.5 -82q0 -81 54.5 -138t147.5 -57q89 0 203 54q17 10 35 6t27 -23 l16 -35q10 -20 5.5 -37t-23.5 -26q-130 -68 -263 -68q-158 0 -251 95t-93 227zM401 1145q0 40 29.5 69t69.5 29t69 -29t29 -69t-29 -68t-69 -28t-69.5 28.5t-29.5 67.5z" />
<glyph unicode="&#xc0;" horiz-adv-x="1329" d="M104 51l310 1180q27 104 93 164.5t157 60.5t157 -61t94 -166l308 -1180q6 -23 -4 -36t-33 -13h-45q-46 0 -58 47l-98 377h-643l-96 -377q-11 -47 -58 -47h-45q-23 0 -34 14t-5 37zM375 547h577l-170 659q-33 119 -118 119q-88 0 -119 -117zM479 1690q-6 15 2 34l21 43 q7 17 22.5 23t32.5 -2l268 -125q17 -6 23.5 -22t-0.5 -31l-12 -25q-15 -34 -54 -20l-278 104q-19 6 -25 21z" />
<glyph unicode="&#xc1;" horiz-adv-x="1329" d="M104 51l310 1180q27 104 93 164.5t157 60.5t157 -61t94 -166l308 -1180q6 -23 -4 -36t-33 -13h-45q-46 0 -58 47l-98 377h-643l-96 -377q-11 -47 -58 -47h-45q-23 0 -34 14t-5 37zM375 547h577l-170 659q-33 119 -118 119q-88 0 -119 -117zM478.5 1641q6.5 16 23.5 22 l266 123q40 16 57 -19l19 -43q9 -19 3.5 -34t-24.5 -21l-278 -104q-41 -13 -53 20l-13 25q-7 15 -0.5 31z" />
<glyph unicode="&#xc2;" horiz-adv-x="1329" d="M104 51l310 1180q27 104 93 164.5t157 60.5t157 -61t94 -166l308 -1180q6 -23 -4 -36t-33 -13h-45q-46 0 -58 47l-98 377h-643l-96 -377q-11 -47 -58 -47h-45q-23 0 -34 14t-5 37zM375 547h577l-170 659q-33 119 -118 119q-88 0 -119 -117zM415.5 1639.5 q2.5 14.5 16.5 23.5l195 123q15 9 34.5 9t34.5 -9l195 -123q35 -21 10 -53l-20 -29q-25 -31 -60 -10l-159 104l-160 -104q-34 -24 -58 10l-20 29q-11 15 -8.5 29.5z" />
<glyph unicode="&#xc3;" horiz-adv-x="1329" d="M104 51l310 1180q27 104 93 164.5t157 60.5t157 -61t94 -166l308 -1180q6 -23 -4 -36t-33 -13h-45q-46 0 -58 47l-98 377h-643l-96 -377q-11 -47 -58 -47h-45q-23 0 -34 14t-5 37zM375 547h577l-170 659q-33 119 -118 119q-88 0 -119 -117zM420 1698q65 74 145 74 q37 0 75.5 -20t70.5 -40t53 -20q45 0 82 37q13 15 26.5 15t22.5 -13l12 -17q26 -26 2 -59q-63 -74 -145 -74q-47 0 -111 40t-88 40q-47 0 -84 -37q-27 -27 -51 4l-6 8q-27 33 -4 62z" />
<glyph unicode="&#xc4;" horiz-adv-x="1329" d="M104 51l310 1180q27 104 93 164.5t157 60.5t157 -61t94 -166l308 -1180q6 -23 -4 -36t-33 -13h-45q-46 0 -58 47l-98 377h-643l-96 -377q-11 -47 -58 -47h-45q-23 0 -34 14t-5 37zM375 547h577l-170 659q-33 119 -118 119q-88 0 -119 -117zM399 1675q0 38 28 66t65 28 q38 0 65 -28t27 -66q0 -37 -27 -64.5t-65 -27.5q-37 0 -65 27.5t-28 64.5zM741 1675q0 38 27.5 66t65.5 28q37 0 64.5 -28t27.5 -66q0 -37 -27.5 -64.5t-64.5 -27.5q-38 0 -65.5 27.5t-27.5 64.5z" />
<glyph unicode="&#xc5;" horiz-adv-x="1329" d="M104 51l310 1180q27 104 93 164.5t157 60.5t157 -61t94 -166l308 -1180q6 -23 -4 -36t-33 -13h-45q-46 0 -58 47l-98 377h-643l-96 -377q-11 -47 -58 -47h-45q-23 0 -34 14t-5 37zM375 547h577l-170 659q-33 119 -118 119q-88 0 -119 -117zM494 1677q0 68 49.5 113 t118.5 45q74 0 123 -44.5t49 -113.5q0 -66 -49.5 -110.5t-122.5 -44.5q-68 0 -118 45t-50 110zM588 1677q0 -29 22 -50t52 -21q33 0 56 20.5t23 50.5q0 31 -22.5 52.5t-56.5 21.5q-30 0 -52 -22t-22 -52z" />
<glyph unicode="&#xc6;" horiz-adv-x="1898" d="M117 16q-10 16 0 41l520 1157q45 102 121 159t176 57h782q22 0 35.5 -13t13.5 -35v-32q0 -22 -13.5 -34.5t-35.5 -12.5h-571v-506h510q22 0 35.5 -12.5t13.5 -34.5v-33q0 -22 -13.5 -34.5t-35.5 -12.5h-510v-297q0 -55 11.5 -97t39.5 -77t81 -53.5t130 -18.5h319 q22 0 36 -13t14 -34v-33q0 -21 -14 -34t-36 -13h-319q-198 0 -300.5 96.5t-102.5 263.5v64h-572l-168 -379q-17 -45 -63 -45h-51q-23 0 -33 16zM487 547h517v753h-66q-113 0 -174 -135z" />
<glyph unicode="&#xc7;" horiz-adv-x="1167" d="M141 504v420q0 255 132 393.5t376 138.5q174 0 359 -51q39 -10 30 -53l-10 -39q-9 -43 -57 -29q-171 45 -312 45q-106 0 -180 -33t-114.5 -93.5t-58 -134t-17.5 -167.5v-375q0 -93 17.5 -166t58 -133.5t115 -93.5t179.5 -33q130 0 312 43q49 13 57 -28l10 -39 q7 -42 -30 -53q-178 -40 -269 -46v-192q0 -61 -19 -106t-52 -69t-69.5 -35t-78.5 -11q-33 0 -61 4q-40 9 -37 49l4 27q6 35 45 30q16 -2 39 -2q58 0 83 33.5t25 101.5v166q-231 9 -354 145.5t-123 385.5z" />
<glyph unicode="&#xc8;" horiz-adv-x="1058" d="M160 352v723q0 165 100 260t297 95h322q22 0 34.5 -13t12.5 -35v-32q0 -22 -12.5 -34.5t-34.5 -12.5h-322q-141 0 -197.5 -60t-56.5 -172v-274h514q22 0 34.5 -12.5t12.5 -34.5v-33q0 -22 -12.5 -34.5t-34.5 -12.5h-514v-312q0 -113 56.5 -172t197.5 -59h330 q22 0 34.5 -12.5t12.5 -34.5v-33q0 -22 -12.5 -34.5t-34.5 -12.5h-330q-196 0 -296.5 94.5t-100.5 257.5zM412 1724l20 43q7 17 22.5 23t32.5 -2l269 -125q17 -6 23 -22t-1 -31l-12 -25q-15 -33 -53 -20l-279 104q-39 12 -22 55z" />
<glyph unicode="&#xc9;" horiz-adv-x="1058" d="M160 352v723q0 165 100 260t297 95h322q22 0 34.5 -13t12.5 -35v-32q0 -22 -12.5 -34.5t-34.5 -12.5h-322q-141 0 -197.5 -60t-56.5 -172v-274h514q22 0 34.5 -12.5t12.5 -34.5v-33q0 -22 -12.5 -34.5t-34.5 -12.5h-514v-312q0 -113 56.5 -172t197.5 -59h330 q22 0 34.5 -12.5t12.5 -34.5v-33q0 -22 -12.5 -34.5t-34.5 -12.5h-330q-196 0 -296.5 94.5t-100.5 257.5zM398.5 1641q6.5 16 23.5 22l266 123q40 16 57 -19l19 -43q9 -19 3.5 -34t-24.5 -21l-278 -104q-41 -13 -53 20l-13 25q-7 15 -0.5 31z" />
<glyph unicode="&#xca;" horiz-adv-x="1058" d="M160 352v723q0 165 100 260t297 95h322q22 0 34.5 -13t12.5 -35v-32q0 -22 -12.5 -34.5t-34.5 -12.5h-322q-141 0 -197.5 -60t-56.5 -172v-274h514q22 0 34.5 -12.5t12.5 -34.5v-33q0 -22 -12.5 -34.5t-34.5 -12.5h-514v-312q0 -113 56.5 -172t197.5 -59h330 q22 0 34.5 -12.5t12.5 -34.5v-33q0 -22 -12.5 -34.5t-34.5 -12.5h-330q-196 0 -296.5 94.5t-100.5 257.5zM341.5 1639.5q2.5 14.5 16.5 23.5l195 123q15 9 35 9t35 -9l194 -123q35 -21 10 -53l-20 -29q-25 -31 -59 -10l-160 104l-160 -104q-34 -24 -57 10l-21 29 q-11 15 -8.5 29.5z" />
<glyph unicode="&#xcb;" horiz-adv-x="1058" d="M160 352v723q0 165 100 260t297 95h322q22 0 34.5 -13t12.5 -35v-32q0 -22 -12.5 -34.5t-34.5 -12.5h-322q-141 0 -197.5 -60t-56.5 -172v-274h514q22 0 34.5 -12.5t12.5 -34.5v-33q0 -22 -12.5 -34.5t-34.5 -12.5h-514v-312q0 -113 56.5 -172t197.5 -59h330 q22 0 34.5 -12.5t12.5 -34.5v-33q0 -22 -12.5 -34.5t-34.5 -12.5h-330q-196 0 -296.5 94.5t-100.5 257.5zM307 1675q0 38 27.5 66t64.5 28q38 0 65.5 -28t27.5 -66q0 -37 -27.5 -64.5t-65.5 -27.5q-37 0 -64.5 27.5t-27.5 64.5zM649 1675q0 38 27 66t65 28q37 0 65 -28 t28 -66q0 -37 -28 -64.5t-65 -27.5q-38 0 -65 27.5t-27 64.5z" />
<glyph unicode="&#xcc;" horiz-adv-x="542" d="M88 1690q-6 15 2 34l21 43q7 17 22.5 23t32.5 -2l268 -125q17 -6 23.5 -22t-0.5 -31l-13 -25q-15 -33 -53 -20l-278 104q-19 6 -25 21zM201 47v1335q0 22 12.5 35t34.5 13h47q22 0 34.5 -13t12.5 -35v-1335q0 -22 -12.5 -34.5t-34.5 -12.5h-47q-22 0 -34.5 12.5 t-12.5 34.5z" />
<glyph unicode="&#xcd;" horiz-adv-x="542" d="M87.5 1641q6.5 16 23.5 22l266 123q40 16 57 -19l19 -43q9 -19 3.5 -34t-24.5 -21l-278 -104q-42 -14 -54 20l-12 25q-7 15 -0.5 31zM201 47v1335q0 22 12.5 35t34.5 13h47q22 0 34.5 -13t12.5 -35v-1335q0 -22 -12.5 -34.5t-34.5 -12.5h-47q-22 0 -34.5 12.5t-12.5 34.5 z" />
<glyph unicode="&#xce;" horiz-adv-x="542" d="M26.5 1639.5q2.5 14.5 16.5 23.5l195 123q15 9 34.5 9t34.5 -9l195 -123q35 -21 10 -53l-20 -29q-25 -31 -60 -10l-160 104l-159 -104q-34 -24 -58 10l-20 29q-11 15 -8.5 29.5zM201 47v1335q0 22 12.5 35t34.5 13h47q22 0 34.5 -13t12.5 -35v-1335q0 -22 -12.5 -34.5 t-34.5 -12.5h-47q-22 0 -34.5 12.5t-12.5 34.5z" />
<glyph unicode="&#xcf;" horiz-adv-x="542" d="M8 1675q0 38 27.5 66t64.5 28q38 0 65.5 -28t27.5 -66q0 -37 -27.5 -64.5t-65.5 -27.5q-37 0 -64.5 27.5t-27.5 64.5zM201 47v1335q0 22 12.5 35t34.5 13h47q22 0 34.5 -13t12.5 -35v-1335q0 -22 -12.5 -34.5t-34.5 -12.5h-47q-22 0 -34.5 12.5t-12.5 34.5zM350 1675 q0 38 27 66t65 28q37 0 65 -28t28 -66q0 -37 -28 -64.5t-65 -27.5q-38 0 -65 27.5t-27 64.5z" />
<glyph unicode="&#xd0;" horiz-adv-x="1337" d="M70 700v29q0 19 11 30t30 11h90v612q0 22 12.5 35t34.5 13h434q260 0 386 -123.5t126 -382.5v-420q0 -257 -126 -380.5t-386 -123.5h-434q-22 0 -34.5 12.5t-12.5 34.5v612h-90q-19 0 -30 11t-11 30zM342 127h338q109 0 183 27.5t114 83t56 125t16 167.5v371 q0 97 -16 166.5t-56 125t-114 83t-183 27.5h-338v-533h287q19 0 30 -11t11 -30v-29q0 -19 -11 -30t-30 -11h-287v-532z" />
<glyph unicode="&#xd1;" horiz-adv-x="1359" d="M201 47v1335q0 22 12.5 35t34.5 13h45q40 0 69 -46l664 -1132q-8 176 -8 250v880q0 22 12.5 35t34.5 13h47q22 0 34.5 -13t12.5 -35v-1335q0 -22 -12.5 -34.5t-34.5 -12.5h-45q-44 0 -72 49l-661 1127q8 -172 8 -248v-881q0 -22 -12.5 -34.5t-34.5 -12.5h-47 q-22 0 -34.5 12.5t-12.5 34.5zM434 1698q65 74 146 74q37 0 75 -20t70 -40t53 -20q45 0 82 37q13 15 26.5 15t22.5 -13l13 -17q26 -26 2 -59q-63 -74 -146 -74q-47 0 -110.5 40t-87.5 40q-47 0 -84 -37q-27 -27 -52 4l-6 8q-27 33 -4 62z" />
<glyph unicode="&#xd2;" d="M141 553v326q0 262 143.5 419.5t391.5 157.5t391 -157.5t143 -419.5v-326q0 -267 -142.5 -423.5t-391.5 -156.5t-392 156.5t-143 423.5zM289 573q0 -79 11.5 -146.5t40 -128.5t71.5 -104t110.5 -68.5t153.5 -25.5t153.5 25.5t110.5 68.5t71.5 104t40 128.5t11.5 146.5 v283q0 78 -11.5 145.5t-40 129t-71.5 104.5t-110.5 68.5t-153.5 25.5t-153.5 -25.5t-110.5 -68.5t-71.5 -104.5t-40 -129t-11.5 -145.5v-283zM494 1724l20 43q7 17 22.5 23t32.5 -2l269 -125q17 -6 23 -22t-1 -31l-12 -25q-15 -33 -53 -20l-279 104q-39 12 -22 55z" />
<glyph unicode="&#xd3;" d="M141 553v326q0 262 143.5 419.5t391.5 157.5t391 -157.5t143 -419.5v-326q0 -267 -142.5 -423.5t-391.5 -156.5t-392 156.5t-143 423.5zM289 573q0 -79 11.5 -146.5t40 -128.5t71.5 -104t110.5 -68.5t153.5 -25.5t153.5 25.5t110.5 68.5t71.5 104t40 128.5t11.5 146.5 v283q0 78 -11.5 145.5t-40 129t-71.5 104.5t-110.5 68.5t-153.5 25.5t-153.5 -25.5t-110.5 -68.5t-71.5 -104.5t-40 -129t-11.5 -145.5v-283zM491 1641q6 16 23 22l266 123q41 16 58 -19l18 -43q20 -42 -20 -55l-279 -104q-41 -13 -53 20l-12 25q-7 15 -1 31z" />
<glyph unicode="&#xd4;" d="M141 553v326q0 262 143.5 419.5t391.5 157.5t391 -157.5t143 -419.5v-326q0 -267 -142.5 -423.5t-391.5 -156.5t-392 156.5t-143 423.5zM289 573q0 -79 11.5 -146.5t40 -128.5t71.5 -104t110.5 -68.5t153.5 -25.5t153.5 25.5t110.5 68.5t71.5 104t40 128.5t11.5 146.5 v283q0 78 -11.5 145.5t-40 129t-71.5 104.5t-110.5 68.5t-153.5 25.5t-153.5 -25.5t-110.5 -68.5t-71.5 -104.5t-40 -129t-11.5 -145.5v-283zM427.5 1639.5q2.5 14.5 16.5 23.5l195 123q15 9 35 9t35 -9l194 -123q35 -21 10 -53l-20 -29q-25 -31 -59 -10l-160 104l-160 -104 q-34 -24 -57 10l-21 29q-11 15 -8.5 29.5z" />
<glyph unicode="&#xd5;" d="M141 553v326q0 262 143.5 419.5t391.5 157.5t391 -157.5t143 -419.5v-326q0 -267 -142.5 -423.5t-391.5 -156.5t-392 156.5t-143 423.5zM289 573q0 -79 11.5 -146.5t40 -128.5t71.5 -104t110.5 -68.5t153.5 -25.5t153.5 25.5t110.5 68.5t71.5 104t40 128.5t11.5 146.5 v283q0 78 -11.5 145.5t-40 129t-71.5 104.5t-110.5 68.5t-153.5 25.5t-153.5 -25.5t-110.5 -68.5t-71.5 -104.5t-40 -129t-11.5 -145.5v-283zM430 1698q65 74 145 74q37 0 75.5 -20t70.5 -40t53 -20q45 0 82 37q13 15 26.5 15t22.5 -13l13 -17q26 -26 2 -59 q-63 -74 -146 -74q-47 0 -111 40t-88 40q-46 0 -83 -37q-27 -27 -52 4l-6 8q-27 33 -4 62z" />
<glyph unicode="&#xd6;" d="M141 553v326q0 262 143.5 419.5t391.5 157.5t391 -157.5t143 -419.5v-326q0 -267 -142.5 -423.5t-391.5 -156.5t-392 156.5t-143 423.5zM289 573q0 -79 11.5 -146.5t40 -128.5t71.5 -104t110.5 -68.5t153.5 -25.5t153.5 25.5t110.5 68.5t71.5 104t40 128.5t11.5 146.5 v283q0 78 -11.5 145.5t-40 129t-71.5 104.5t-110.5 68.5t-153.5 25.5t-153.5 -25.5t-110.5 -68.5t-71.5 -104.5t-40 -129t-11.5 -145.5v-283zM412 1675q0 38 27.5 66t64.5 28q38 0 65 -28t27 -66q0 -37 -27 -64.5t-65 -27.5q-37 0 -64.5 27.5t-27.5 64.5zM754 1675 q0 38 27 66t65 28q37 0 64.5 -28t27.5 -66q0 -37 -27.5 -64.5t-64.5 -27.5q-38 0 -65 27.5t-27 64.5z" />
<glyph unicode="&#xd7;" horiz-adv-x="1136" d="M236 340q-30 34 2 63l237 240l-239 240q-29 33 0 65l28 27q14 15 31.5 15t32.5 -15l239 -240l242 242q15 15 32.5 15t32.5 -15l27 -27q15 -15 15 -32.5t-15 -32.5l-242 -242l242 -242q15 -13 15 -30.5t-15 -32.5l-27 -27q-15 -15 -32.5 -15t-32.5 15l-242 240l-239 -240 q-15 -13 -32.5 -13t-31.5 13z" />
<glyph unicode="&#xd8;" d="M141 553v326q0 262 143.5 419.5t391.5 157.5q135 0 239 -49l68 152q17 33 55 18l29 -12q36 -15 20 -52l-73 -165q95 -75 145.5 -196t50.5 -273v-326q0 -267 -142.5 -423.5t-391.5 -156.5q-137 0 -250 52l-68 -154q-15 -37 -55 -21l-29 15q-37 15 -22 53l76 170 q-187 155 -187 465zM289 573q0 -232 98 -352l475 1067q-74 41 -186 41q-86 0 -153.5 -25.5t-110.5 -68.5t-71.5 -104.5t-40 -129t-11.5 -145.5v-283zM479 143q84 -43 197 -43q86 0 153.5 25.5t110.5 68.5t71.5 104t40 128.5t11.5 146.5v283q0 234 -107 361z" />
<glyph unicode="&#xd9;" horiz-adv-x="1355" d="M170 518v864q0 22 12.5 35t34.5 13h47q22 0 34.5 -13t12.5 -35v-901q0 -75 22 -142t65 -121.5t115 -86t165 -31.5q91 0 162.5 32t114.5 86t65 121t22 142v901q0 22 14 35t36 13h47q22 0 34.5 -13t12.5 -35v-864q0 -260 -132 -402.5t-376 -142.5q-242 0 -375 142t-133 403 zM496 1724l20 43q7 17 22.5 23t32.5 -2l269 -125q17 -6 23 -22t-1 -31l-12 -25q-15 -33 -53 -20l-279 104q-39 12 -22 55z" />
<glyph unicode="&#xda;" horiz-adv-x="1355" d="M170 518v864q0 22 12.5 35t34.5 13h47q22 0 34.5 -13t12.5 -35v-901q0 -75 22 -142t65 -121.5t115 -86t165 -31.5q91 0 162.5 32t114.5 86t65 121t22 142v901q0 22 14 35t36 13h47q22 0 34.5 -13t12.5 -35v-864q0 -260 -132 -402.5t-376 -142.5q-242 0 -375 142t-133 403 zM493 1641q6 16 23 22l266 123q41 16 58 -19l18 -43q20 -42 -20 -55l-279 -104q-41 -13 -53 20l-12 25q-7 15 -1 31z" />
<glyph unicode="&#xdb;" horiz-adv-x="1355" d="M170 518v864q0 22 12.5 35t34.5 13h47q22 0 34.5 -13t12.5 -35v-901q0 -75 22 -142t65 -121.5t115 -86t165 -31.5q91 0 162.5 32t114.5 86t65 121t22 142v901q0 22 14 35t36 13h47q22 0 34.5 -13t12.5 -35v-864q0 -260 -132 -402.5t-376 -142.5q-242 0 -375 142t-133 403 zM429.5 1639.5q2.5 14.5 16.5 23.5l195 123q15 9 35 9t35 -9l194 -123q35 -21 10 -53l-20 -29q-25 -31 -59 -10l-160 104l-160 -104q-34 -24 -57 10l-21 29q-11 15 -8.5 29.5z" />
<glyph unicode="&#xdc;" horiz-adv-x="1355" d="M170 518v864q0 22 12.5 35t34.5 13h47q22 0 34.5 -13t12.5 -35v-901q0 -75 22 -142t65 -121.5t115 -86t165 -31.5q91 0 162.5 32t114.5 86t65 121t22 142v901q0 22 14 35t36 13h47q22 0 34.5 -13t12.5 -35v-864q0 -260 -132 -402.5t-376 -142.5q-242 0 -375 142t-133 403 zM414 1675q0 38 27.5 66t64.5 28q38 0 65 -28t27 -66q0 -37 -27 -64.5t-65 -27.5q-37 0 -64.5 27.5t-27.5 64.5zM756 1675q0 38 27 66t65 28q37 0 64.5 -28t27.5 -66q0 -37 -27.5 -64.5t-64.5 -27.5q-38 0 -65 27.5t-27 64.5z" />
<glyph unicode="&#xdd;" horiz-adv-x="1175" d="M102 1376q-4 25 6.5 39.5t32.5 14.5h45q46 0 56 -50l69 -354q8 -39 14 -65t17 -61t24 -58.5t34 -48.5t46.5 -40t61.5 -24.5t80 -9.5q51 0 91.5 11t68 35t46.5 48.5t33 65t21 70t16 77.5l68 352q5 24 19.5 38t35.5 14h47q22 0 32.5 -14.5t6.5 -37.5l-72 -381 q-13 -63 -29 -113.5t-43.5 -102t-63 -87.5t-88.5 -62t-120 -34v-551q0 -22 -12.5 -34.5t-34.5 -12.5h-47q-22 0 -34.5 12.5t-12.5 34.5v551q-67 8 -120 34.5t-88.5 63t-63 88t-43 101.5t-27.5 112zM402.5 1641q6.5 16 23.5 22l266 123q41 16 58 -19l18 -43q20 -42 -20 -55 l-279 -104q-41 -13 -53 20l-13 25q-7 15 -0.5 31z" />
<glyph unicode="&#xde;" horiz-adv-x="1159" d="M201 45v1339q0 21 12 33.5t33 12.5h51q21 0 33 -12.5t12 -33.5v-204h244q147 0 254 -61t159 -159.5t52 -220.5q0 -123 -52 -221.5t-159 -158.5t-254 -60h-244v-254q0 -21 -12 -33t-33 -12h-51q-21 0 -33 12t-12 33zM342 428h240q84 0 148 27t100.5 72.5t54.5 99t18 112.5 q0 61 -18 115t-54.5 99t-100.5 71.5t-148 26.5h-240v-623z" />
<glyph unicode="&#xdf;" horiz-adv-x="1179" d="M29 991v17q0 41 45 41h127v137q0 153 92 240t246 87q144 0 241 -84.5t97 -220.5q0 -66 -24.5 -120.5t-59 -91t-69 -69.5t-59 -74t-24.5 -87q0 -40 18.5 -71.5t48.5 -52.5t69 -42t79 -38t79 -43.5t69 -56.5t48.5 -77t18.5 -106q0 -139 -95.5 -222.5t-256.5 -83.5 q-122 0 -250 39q-43 15 -33 60l6 32q4 21 20.5 29t37.5 2q124 -37 219 -37q108 0 159.5 48.5t51.5 132.5q0 47 -23.5 81.5t-61.5 57t-84 43t-92 45t-84 56t-61.5 83.5t-23.5 121q0 63 24.5 113.5t60 85t70.5 68t59.5 78t24.5 97.5q0 74 -51.5 127.5t-146.5 53.5 q-201 0 -201 -218v-1124q0 -22 -13.5 -34.5t-35.5 -12.5h-43q-22 0 -34.5 12.5t-12.5 34.5v891l-127 8q-45 6 -45 45z" />
<glyph unicode="&#xe0;" horiz-adv-x="1050" d="M102 279q0 156 119.5 229.5t329.5 73.5h192v100q0 138 -57.5 203t-193.5 65q-112 0 -240 -35q-45 -13 -57 33l-7 27q-14 46 33 59q139 41 271 41q193 0 292 -99t99 -267v-662q0 -47 -43 -47h-23q-43 0 -49 41l-10 65q-147 -133 -322 -133q-155 0 -244.5 84.5t-89.5 221.5 zM246 279q0 -83 52 -132t153 -49q78 0 154.5 33.5t137.5 91.5v244h-184q-152 0 -232.5 -42.5t-80.5 -145.5zM342 1340q-6 15 2 34l21 43q7 17 22.5 23t32.5 -2l268 -125q17 -6 23.5 -22t-0.5 -31l-13 -25q-15 -34 -53 -21l-278 105q-19 6 -25 21z" />
<glyph unicode="&#xe1;" horiz-adv-x="1050" d="M102 279q0 156 119.5 229.5t329.5 73.5h192v100q0 138 -57.5 203t-193.5 65q-112 0 -240 -35q-45 -13 -57 33l-7 27q-14 46 33 59q139 41 271 41q193 0 292 -99t99 -267v-662q0 -47 -43 -47h-23q-43 0 -49 41l-10 65q-147 -133 -322 -133q-155 0 -244.5 84.5t-89.5 221.5 zM246 279q0 -83 52 -132t153 -49q78 0 154.5 33.5t137.5 91.5v244h-184q-152 0 -232.5 -42.5t-80.5 -145.5zM339 1291q6 16 23 22l267 123q40 16 57 -19l19 -43q9 -19 3.5 -34t-24.5 -21l-278 -105q-42 -13 -54 21l-12 25q-7 15 -1 31z" />
<glyph unicode="&#xe2;" horiz-adv-x="1050" d="M102 279q0 156 119.5 229.5t329.5 73.5h192v100q0 138 -57.5 203t-193.5 65q-112 0 -240 -35q-45 -13 -57 33l-7 27q-14 46 33 59q139 41 271 41q193 0 292 -99t99 -267v-662q0 -47 -43 -47h-23q-43 0 -49 41l-10 65q-147 -133 -322 -133q-155 0 -244.5 84.5t-89.5 221.5 zM246 279q0 -83 52 -132t153 -49q78 0 154.5 33.5t137.5 91.5v244h-184q-152 0 -232.5 -42.5t-80.5 -145.5zM276.5 1289.5q2.5 14.5 16.5 23.5l194 123q15 9 35 9t35 -9l195 -123q35 -21 10 -53l-21 -29q-25 -31 -59 -10l-160 104l-160 -104q-34 -24 -57 10l-20 29 q-11 15 -8.5 29.5z" />
<glyph unicode="&#xe3;" horiz-adv-x="1050" d="M102 279q0 156 119.5 229.5t329.5 73.5h192v100q0 138 -57.5 203t-193.5 65q-112 0 -240 -35q-45 -13 -57 33l-7 27q-14 46 33 59q139 41 271 41q193 0 292 -99t99 -267v-662q0 -47 -43 -47h-23q-43 0 -49 41l-10 65q-147 -133 -322 -133q-155 0 -244.5 84.5t-89.5 221.5 zM246 279q0 -83 52 -132t153 -49q78 0 154.5 33.5t137.5 91.5v244h-184q-152 0 -232.5 -42.5t-80.5 -145.5zM276 1348q64 73 146 73q37 0 75.5 -20t70.5 -40t53 -20q44 0 81 37q13 14 27 14t23 -12l12 -16q26 -26 2 -59q-63 -74 -145 -74q-47 0 -111 40t-88 40 q-47 0 -84 -37q-27 -27 -51 4l-6 8q-27 34 -5 62z" />
<glyph unicode="&#xe4;" horiz-adv-x="1050" d="M102 279q0 156 119.5 229.5t329.5 73.5h192v100q0 138 -57.5 203t-193.5 65q-112 0 -240 -35q-45 -13 -57 33l-7 27q-14 46 33 59q139 41 271 41q193 0 292 -99t99 -267v-662q0 -47 -43 -47h-23q-43 0 -49 41l-10 65q-147 -133 -322 -133q-155 0 -244.5 84.5t-89.5 221.5 zM246 279q0 -83 52 -132t153 -49q78 0 154.5 33.5t137.5 91.5v244h-184q-152 0 -232.5 -42.5t-80.5 -145.5zM258 1325q0 38 27.5 66t64.5 28q38 0 65 -28t27 -66q0 -37 -27 -64.5t-65 -27.5q-37 0 -64.5 27.5t-27.5 64.5zM600 1325q0 38 27 66t65 28q37 0 64.5 -28t27.5 -66 q0 -37 -27.5 -64.5t-64.5 -27.5q-38 0 -65 27.5t-27 64.5z" />
<glyph unicode="&#xe5;" horiz-adv-x="1050" d="M102 279q0 156 119.5 229.5t329.5 73.5h192v100q0 138 -57.5 203t-193.5 65q-112 0 -240 -35q-45 -13 -57 33l-7 27q-14 46 33 59q139 41 271 41q193 0 292 -99t99 -267v-662q0 -47 -43 -47h-23q-43 0 -49 41l-10 65q-147 -133 -322 -133q-155 0 -244.5 84.5t-89.5 221.5 zM246 279q0 -83 52 -132t153 -49q78 0 154.5 33.5t137.5 91.5v244h-184q-152 0 -232.5 -42.5t-80.5 -145.5zM350 1329q0 68 49.5 113t118.5 45q74 0 123 -44.5t49 -113.5q0 -66 -49.5 -110.5t-122.5 -44.5q-68 0 -118 45t-50 110zM444 1329q0 -29 22.5 -50.5t51.5 -21.5 q33 0 56.5 21t23.5 51q0 31 -23 52.5t-57 21.5q-30 0 -52 -22t-22 -52z" />
<glyph unicode="&#xe6;" horiz-adv-x="1685" d="M102 279q0 156 119.5 229.5t329.5 73.5h192v100q0 138 -57.5 203t-193.5 65q-112 0 -240 -35q-45 -13 -57 33l-7 27q-14 46 33 59q139 41 271 41q245 0 335 -166q52 77 135.5 121.5t192.5 44.5q94 0 172.5 -35.5t129.5 -94.5t79.5 -134.5t28.5 -155.5v-114q0 -17 -12 -29 t-27 -12h-641v-109q0 -41 8.5 -80t29 -78.5t52 -68.5t81 -47.5t111.5 -18.5q114 0 269 41q52 17 61 -28l8 -31q12 -44 -37 -60q-169 -47 -301 -47q-214 0 -333 152q-76 -66 -178.5 -109t-219.5 -43q-155 0 -244.5 84.5t-89.5 221.5zM246 279q0 -83 52 -132t153 -49 q81 0 170 35t157 86q-33 73 -33 172v76h-186q-152 0 -232.5 -42.5t-80.5 -145.5zM885 610h540v52q0 53 -15 102t-45.5 91.5t-84.5 68.5t-125 26q-70 0 -124 -25.5t-84.5 -67.5t-46 -91t-15.5 -102v-54z" />
<glyph unicode="&#xe7;" horiz-adv-x="983" d="M131 438v176q0 213 109.5 337t308.5 124q126 0 270 -37q52 -16 41 -61l-8 -29q-11 -43 -66 -30q-110 32 -233 32q-281 0 -281 -350v-145q0 -357 281 -357q109 0 238 35q47 14 61 -29l8 -30q13 -49 -39 -62q-127 -31 -203 -37v-190q0 -61 -19 -106t-52 -69t-69.5 -35 t-78.5 -11q-33 0 -61 4q-40 9 -37 49l4 27q6 35 45 30q16 -2 39 -2q58 0 83.5 33.5t25.5 101.5v168q-176 17 -271.5 141t-95.5 322z" />
<glyph unicode="&#xe8;" horiz-adv-x="1071" d="M131 391v264q0 112 47.5 206.5t142.5 154t220 59.5q94 0 172.5 -35.5t129.5 -94.5t79 -134t28 -156v-114q0 -17 -12 -29t-27 -12h-641v-109q0 -41 8.5 -80t29.5 -78.5t52.5 -68.5t81 -47.5t111.5 -18.5q109 0 268 41q54 14 62 -26l8 -35q12 -42 -37 -58 q-169 -47 -301 -47q-100 0 -181.5 35t-133.5 93.5t-79.5 133t-27.5 156.5zM270 610h541v52q0 53 -15 102t-45.5 91.5t-84.5 68.5t-125 26t-125 -25.5t-85 -68t-46 -92t-15 -102.5v-52zM350 1340q-6 15 2 34l21 43q7 17 22.5 23t32.5 -2l268 -125q17 -6 23.5 -22t-0.5 -31 l-12 -25q-15 -35 -54 -21l-278 105q-19 6 -25 21z" />
<glyph unicode="&#xe9;" horiz-adv-x="1071" d="M131 391v264q0 112 47.5 206.5t142.5 154t220 59.5q94 0 172.5 -35.5t129.5 -94.5t79 -134t28 -156v-114q0 -17 -12 -29t-27 -12h-641v-109q0 -41 8.5 -80t29.5 -78.5t52.5 -68.5t81 -47.5t111.5 -18.5q109 0 268 41q54 14 62 -26l8 -35q12 -42 -37 -58 q-169 -47 -301 -47q-100 0 -181.5 35t-133.5 93.5t-79.5 133t-27.5 156.5zM270 610h541v52q0 53 -15 102t-45.5 91.5t-84.5 68.5t-125 26t-125 -25.5t-85 -68t-46 -92t-15 -102.5v-52zM341.5 1291q6.5 16 23.5 22l266 123q40 16 57 -19l19 -43q9 -19 3.5 -34t-24.5 -21 l-278 -105q-42 -13 -54 21l-12 25q-7 15 -0.5 31z" />
<glyph unicode="&#xea;" horiz-adv-x="1071" d="M131 391v264q0 112 47.5 206.5t142.5 154t220 59.5q94 0 172.5 -35.5t129.5 -94.5t79 -134t28 -156v-114q0 -17 -12 -29t-27 -12h-641v-109q0 -41 8.5 -80t29.5 -78.5t52.5 -68.5t81 -47.5t111.5 -18.5q109 0 268 41q54 14 62 -26l8 -35q12 -42 -37 -58 q-169 -47 -301 -47q-100 0 -181.5 35t-133.5 93.5t-79.5 133t-27.5 156.5zM270 610h541v52q0 53 -15 102t-45.5 91.5t-84.5 68.5t-125 26t-125 -25.5t-85 -68t-46 -92t-15 -102.5v-52zM288.5 1289.5q2.5 14.5 16.5 23.5l195 123q15 9 34.5 9t34.5 -9l195 -123q35 -21 10 -53 l-20 -29q-25 -31 -60 -10l-159 104l-160 -104q-34 -24 -58 10l-20 29q-11 15 -8.5 29.5z" />
<glyph unicode="&#xeb;" horiz-adv-x="1071" d="M131 391v264q0 112 47.5 206.5t142.5 154t220 59.5q94 0 172.5 -35.5t129.5 -94.5t79 -134t28 -156v-114q0 -17 -12 -29t-27 -12h-641v-109q0 -41 8.5 -80t29.5 -78.5t52.5 -68.5t81 -47.5t111.5 -18.5q109 0 268 41q54 14 62 -26l8 -35q12 -42 -37 -58 q-169 -47 -301 -47q-100 0 -181.5 35t-133.5 93.5t-79.5 133t-27.5 156.5zM270 610h541v52q0 53 -15 102t-45.5 91.5t-84.5 68.5t-125 26t-125 -25.5t-85 -68t-46 -92t-15 -102.5v-52zM272 1325q0 38 28 66t65 28q38 0 65 -28t27 -66q0 -37 -27 -64.5t-65 -27.5 q-37 0 -65 27.5t-28 64.5zM614 1325q0 38 27.5 66t65.5 28q37 0 64.5 -28t27.5 -66q0 -37 -27.5 -64.5t-64.5 -27.5q-38 0 -65.5 27.5t-27.5 64.5z" />
<glyph unicode="&#xec;" horiz-adv-x="493" d="M61 1340q-6 15 2 34l21 43q7 17 22.5 23t32.5 -2l269 -125q17 -6 23 -22t-1 -31l-12 -25q-15 -34 -53 -21l-279 105q-19 6 -25 21zM176 47v954q0 22 13.5 35t35.5 13h43q22 0 34.5 -13t12.5 -35v-954q0 -22 -12.5 -34.5t-34.5 -12.5h-43q-22 0 -35.5 12.5t-13.5 34.5z " />
<glyph unicode="&#xed;" horiz-adv-x="493" d="M58.5 1291q6.5 16 23.5 22l266 123q41 16 58 -19l18 -43q9 -19 3.5 -34t-24.5 -21l-278 -105q-41 -13 -53 21l-13 25q-7 15 -0.5 31zM176 47v954q0 22 13.5 35t35.5 13h43q22 0 34.5 -13t12.5 -35v-954q0 -22 -12.5 -34.5t-34.5 -12.5h-43q-22 0 -35.5 12.5t-13.5 34.5z " />
<glyph unicode="&#xee;" horiz-adv-x="493" d="M-0.5 1289.5q2.5 14.5 16.5 23.5l195 123q15 9 35 9t35 -9l194 -123q35 -21 10 -53l-20 -29q-25 -31 -59 -10l-160 104l-160 -104q-34 -24 -57 10l-21 29q-11 15 -8.5 29.5zM176 47v954q0 22 13.5 35t35.5 13h43q22 0 34.5 -13t12.5 -35v-954q0 -22 -12.5 -34.5 t-34.5 -12.5h-43q-22 0 -35.5 12.5t-13.5 34.5z" />
<glyph unicode="&#xef;" horiz-adv-x="493" d="M-16 1325q0 38 27.5 66t64.5 28q38 0 65 -28t27 -66q0 -37 -27 -64.5t-65 -27.5q-37 0 -64.5 27.5t-27.5 64.5zM176 47v954q0 22 13.5 35t35.5 13h43q22 0 34.5 -13t12.5 -35v-954q0 -22 -12.5 -34.5t-34.5 -12.5h-43q-22 0 -35.5 12.5t-13.5 34.5zM326 1325q0 38 27 66 t65 28q37 0 64.5 -28t27.5 -66q0 -37 -27.5 -64.5t-64.5 -27.5q-38 0 -65 27.5t-27 64.5z" />
<glyph unicode="&#xf0;" horiz-adv-x="1114" d="M131 399v150q0 188 118.5 306t307.5 118q180 0 293 -119q-6 212 -70.5 326t-191.5 137l-70 -148q-14 -34 -63 -16q-44 19 -25 55l53 117q-123 -2 -225 -27q-50 -9 -61 31l-7 33q-6 19 5 34t34 19q111 31 273 31q25 0 37 -2l61 131q15 38 66 14q39 -19 22 -55l-49 -107 q162 -39 254 -180.5t92 -392.5v-455q0 -185 -116 -305.5t-312 -120.5q-195 0 -310.5 120.5t-115.5 305.5zM272 416q0 -67 16 -122.5t48.5 -100.5t89 -70t131.5 -25q147 0 216 88.5t69 229.5v116q0 140 -69.5 227t-215.5 87q-145 0 -215 -87t-70 -227v-116z" />
<glyph unicode="&#xf1;" horiz-adv-x="1138" d="M176 47v954q0 22 12 35t33 13h23q43 0 49 -43l10 -68q170 137 324 137q169 0 257.5 -94.5t88.5 -257.5v-676q0 -22 -12.5 -34.5t-34.5 -12.5h-45q-22 0 -34.5 12.5t-12.5 34.5v641q0 132 -51 197t-175 65q-73 0 -140 -33t-153 -98v-772q0 -22 -12.5 -34.5t-34.5 -12.5 h-43q-22 0 -35.5 12.5t-13.5 34.5zM324 1348q64 73 145 73q37 0 75.5 -20t70.5 -40t53 -20q45 0 82 37q13 14 26.5 14t22.5 -12l12 -16q26 -26 2 -59q-63 -74 -145 -74q-47 0 -111 40t-88 40q-47 0 -84 -37q-27 -27 -51 4l-6 8q-27 33 -4 62z" />
<glyph unicode="&#xf2;" horiz-adv-x="1116" d="M131 432v186q0 213 114 335t314 122q199 0 312.5 -122t113.5 -335v-186q0 -214 -113.5 -336.5t-312.5 -122.5q-201 0 -314.5 122.5t-113.5 336.5zM272 449q0 -351 287 -351q285 0 285 351v155q0 346 -285 346q-287 0 -287 -346v-155zM369 1374l20 43q7 17 22.5 23 t32.5 -2l269 -125q17 -6 23 -22t-1 -31l-12 -25q-15 -34 -53 -21l-279 105q-39 12 -22 55z" />
<glyph unicode="&#xf3;" horiz-adv-x="1116" d="M131 432v186q0 213 114 335t314 122q199 0 312.5 -122t113.5 -335v-186q0 -214 -113.5 -336.5t-312.5 -122.5q-201 0 -314.5 122.5t-113.5 336.5zM272 449q0 -351 287 -351q285 0 285 351v155q0 346 -285 346q-287 0 -287 -346v-155zM366 1291q6 16 23 22l266 123 q41 16 58 -19l18 -43q20 -42 -20 -55l-279 -105q-41 -13 -53 21l-12 25q-7 15 -1 31z" />
<glyph unicode="&#xf4;" horiz-adv-x="1116" d="M131 432v186q0 213 114 335t314 122q199 0 312.5 -122t113.5 -335v-186q0 -214 -113.5 -336.5t-312.5 -122.5q-201 0 -314.5 122.5t-113.5 336.5zM272 449q0 -351 287 -351q285 0 285 351v155q0 346 -285 346q-287 0 -287 -346v-155zM311 1289.5q3 14.5 17 23.5l194 123 q15 9 35 9t35 -9l194 -123q16 -9 19 -23.5t-8 -29.5l-21 -29q-25 -31 -59 -10l-160 104l-160 -104q-34 -24 -57 10l-21 29q-11 15 -8 29.5z" />
<glyph unicode="&#xf5;" horiz-adv-x="1116" d="M131 432v186q0 213 114 335t314 122q199 0 312.5 -122t113.5 -335v-186q0 -214 -113.5 -336.5t-312.5 -122.5q-201 0 -314.5 122.5t-113.5 336.5zM272 449q0 -351 287 -351q285 0 285 351v155q0 346 -285 346q-287 0 -287 -346v-155zM313 1348q64 73 146 73q37 0 75 -20 t70 -40t53 -20q45 0 82 37q13 14 26.5 14t22.5 -12l13 -16q26 -26 2 -59q-63 -74 -146 -74q-47 0 -110.5 40t-87.5 40q-47 0 -84 -37q-27 -27 -51 4l-7 8q-27 33 -4 62z" />
<glyph unicode="&#xf6;" horiz-adv-x="1116" d="M131 432v186q0 213 114 335t314 122q199 0 312.5 -122t113.5 -335v-186q0 -214 -113.5 -336.5t-312.5 -122.5q-201 0 -314.5 122.5t-113.5 336.5zM272 449q0 -351 287 -351q285 0 285 351v155q0 346 -285 346q-287 0 -287 -346v-155zM295 1325q0 38 27.5 66t64.5 28 q38 0 65 -28t27 -66q0 -37 -27 -64.5t-65 -27.5q-37 0 -64.5 27.5t-27.5 64.5zM637 1325q0 38 27 66t65 28q37 0 64.5 -28t27.5 -66q0 -37 -27.5 -64.5t-64.5 -27.5q-38 0 -65 27.5t-27 64.5z" />
<glyph unicode="&#xf8;" horiz-adv-x="1116" d="M131 432v186q0 213 114 335t314 122q89 0 168 -28l59 135q18 37 54 20l30 -12q35 -17 21 -53l-64 -144q158 -123 158 -375v-186q0 -214 -113.5 -336.5t-312.5 -122.5q-94 0 -176 29l-61 -139q-16 -37 -54 -19l-28 13q-35 17 -21 53l66 147q-154 123 -154 375zM272 449 q0 -176 70 -263l332 744q-55 20 -115 20q-287 0 -287 -346v-155zM436 119q52 -21 123 -21q285 0 285 351v155q0 174 -74 260z" />
<glyph unicode="&#xf9;" horiz-adv-x="1138" d="M166 328v673q0 22 13.5 35t35.5 13h43q22 0 34.5 -13t12.5 -35v-641q0 -134 50.5 -198t176.5 -64q73 0 141.5 33.5t149.5 97.5v772q0 22 12.5 35t34.5 13h45q22 0 35 -13t13 -35v-954q0 -47 -45 -47h-21q-46 0 -51 39l-8 72q-171 -138 -324 -138q-169 0 -258.5 95.5 t-89.5 259.5zM385 1340q-6 15 2 34l21 43q7 17 22.5 23t32.5 -2l268 -125q17 -6 23.5 -22t-0.5 -31l-13 -25q-15 -34 -53 -21l-278 105q-19 6 -25 21z" />
<glyph unicode="&#xfa;" horiz-adv-x="1138" d="M166 328v673q0 22 13.5 35t35.5 13h43q22 0 34.5 -13t12.5 -35v-641q0 -134 50.5 -198t176.5 -64q73 0 141.5 33.5t149.5 97.5v772q0 22 12.5 35t34.5 13h45q22 0 35 -13t13 -35v-954q0 -47 -45 -47h-21q-46 0 -51 39l-8 72q-171 -138 -324 -138q-169 0 -258.5 95.5 t-89.5 259.5zM386.5 1291q6.5 16 23.5 22l266 123q40 16 57 -19l19 -43q9 -19 3.5 -34t-24.5 -21l-278 -105q-42 -13 -54 21l-12 25q-7 15 -0.5 31z" />
<glyph unicode="&#xfb;" horiz-adv-x="1138" d="M166 328v673q0 22 13.5 35t35.5 13h43q22 0 34.5 -13t12.5 -35v-641q0 -134 50.5 -198t176.5 -64q73 0 141.5 33.5t149.5 97.5v772q0 22 12.5 35t34.5 13h45q22 0 35 -13t13 -35v-954q0 -47 -45 -47h-21q-46 0 -51 39l-8 72q-171 -138 -324 -138q-169 0 -258.5 95.5 t-89.5 259.5zM323.5 1289.5q2.5 14.5 16.5 23.5l195 123q15 9 34.5 9t34.5 -9l195 -123q35 -21 10 -53l-21 -29q-25 -31 -59 -10l-160 104l-159 -104q-34 -24 -58 10l-20 29q-11 15 -8.5 29.5z" />
<glyph unicode="&#xfc;" horiz-adv-x="1138" d="M166 328v673q0 22 13.5 35t35.5 13h43q22 0 34.5 -13t12.5 -35v-641q0 -134 50.5 -198t176.5 -64q73 0 141.5 33.5t149.5 97.5v772q0 22 12.5 35t34.5 13h45q22 0 35 -13t13 -35v-954q0 -47 -45 -47h-21q-46 0 -51 39l-8 72q-171 -138 -324 -138q-169 0 -258.5 95.5 t-89.5 259.5zM307 1325q0 38 27.5 66t64.5 28q38 0 65.5 -28t27.5 -66q0 -37 -27.5 -64.5t-65.5 -27.5q-37 0 -64.5 27.5t-27.5 64.5zM649 1325q0 38 27 66t65 28q37 0 65 -28t28 -66q0 -37 -28 -64.5t-65 -27.5q-38 0 -65 27.5t-27 64.5z" />
<glyph unicode="&#xfd;" horiz-adv-x="1044" d="M98 997q-2 22 10 37t33 15h43q22 0 36.5 -13t17.5 -35l84 -645q29 -229 202 -229q96 0 215 61l43 811q5 50 54 50h38q23 0 36 -12.5t10 -37.5l-58 -1085q-8 -156 -90.5 -241t-247.5 -85h-143q-48 0 -51 43l-4 37q-3 45 43 45h159q103 0 147 53t50 156l10 133 q-116 -55 -217 -55q-290 0 -334 340zM329 1291q6 16 23 22l266 123q41 16 58 -19l18 -43q20 -42 -20 -55l-279 -105q-41 -13 -53 21l-12 25q-7 15 -1 31z" />
<glyph unicode="&#xfe;" horiz-adv-x="1132" d="M176 -367v1809q0 20 12.5 32.5t32.5 12.5h49q21 0 33 -12t12 -33v-492q164 125 306 125q179 0 279.5 -111t100.5 -307v-266q0 -195 -101 -306.5t-279 -111.5q-76 0 -148.5 32t-157.5 93v-465q0 -21 -12 -33t-33 -12h-49q-20 0 -32.5 12.5t-12.5 32.5zM315 227 q60 -44 96 -66.5t88.5 -42.5t102.5 -20q133 0 195.5 80.5t62.5 245.5v201q0 165 -62 245t-196 80q-118 0 -287 -133v-590z" />
<glyph unicode="&#xff;" horiz-adv-x="1044" d="M98 997q-2 22 10 37t33 15h43q22 0 36.5 -13t17.5 -35l84 -645q29 -229 202 -229q96 0 215 61l43 811q5 50 54 50h38q23 0 36 -12.5t10 -37.5l-58 -1085q-8 -156 -90.5 -241t-247.5 -85h-143q-48 0 -51 43l-4 37q-3 45 43 45h159q103 0 147 53t50 156l10 133 q-116 -55 -217 -55q-290 0 -334 340zM250 1325q0 38 27.5 66t64.5 28q38 0 65 -28t27 -66q0 -37 -27 -64.5t-65 -27.5q-37 0 -64.5 27.5t-27.5 64.5zM592 1325q0 38 27 66t65 28q37 0 64.5 -28t27.5 -66q0 -37 -27.5 -64.5t-64.5 -27.5q-38 0 -65 27.5t-27 64.5z" />
<glyph unicode="&#x152;" horiz-adv-x="1892" d="M141 553v326q0 262 143.5 419.5t391.5 157.5q89 0 182 -26h856q20 0 32.5 -13t12.5 -33v-36q0 -21 -12 -33t-33 -12h-659q155 -155 155 -418v-88h443q20 0 32.5 -12.5t12.5 -32.5v-37q0 -20 -12.5 -32.5t-32.5 -12.5h-443v-117q0 -276 -153 -426h665q20 0 32.5 -12.5 t12.5 -32.5v-37q0 -20 -12.5 -32.5t-32.5 -12.5h-864q-93 -27 -182 -27q-249 0 -392 156.5t-143 423.5zM289 573q0 -79 11.5 -146.5t40 -128.5t71.5 -104t110.5 -68.5t153.5 -25.5t153.5 25.5t110.5 68.5t71.5 104t40 128.5t11.5 146.5v283q0 78 -11.5 145.5t-40 129 t-71.5 104.5t-110.5 68.5t-153.5 25.5t-153.5 -25.5t-110.5 -68.5t-71.5 -104.5t-40 -129t-11.5 -145.5v-283z" />
<glyph unicode="&#x153;" horiz-adv-x="1787" d="M131 432v186q0 213 114 335t314 122q122 0 212 -49t142 -141q52 87 139.5 138.5t202.5 51.5q124 0 220 -61t144 -156t48 -203v-114q0 -17 -12 -29t-29 -12h-641v-109q0 -41 8.5 -80t29.5 -78.5t52.5 -68.5t81 -47.5t111.5 -18.5q113 0 268 41q53 14 61 -26l11 -35 q9 -42 -37 -58q-169 -47 -301 -47q-122 0 -213.5 51t-143.5 138q-51 -92 -141.5 -140.5t-212.5 -48.5q-201 0 -314.5 122.5t-113.5 336.5zM272 449q0 -351 287 -351q285 0 285 351v155q0 346 -285 346q-287 0 -287 -346v-155zM985 610h543v52q0 53 -15 102t-46 91.5 t-86 68.5t-126 26t-125 -25.5t-84.5 -68.5t-45.5 -92t-15 -102v-52z" />
<glyph unicode="&#x178;" horiz-adv-x="1175" d="M102 1376q-4 25 6.5 39.5t32.5 14.5h45q46 0 56 -50l69 -354q8 -39 14 -65t17 -61t24 -58.5t34 -48.5t46.5 -40t61.5 -24.5t80 -9.5q51 0 91.5 11t68 35t46.5 48.5t33 65t21 70t16 77.5l68 352q5 24 19.5 38t35.5 14h47q22 0 32.5 -14.5t6.5 -37.5l-72 -381 q-13 -63 -29 -113.5t-43.5 -102t-63 -87.5t-88.5 -62t-120 -34v-551q0 -22 -12.5 -34.5t-34.5 -12.5h-47q-22 0 -34.5 12.5t-12.5 34.5v551q-67 8 -120 34.5t-88.5 63t-63 88t-43 101.5t-27.5 112zM324 1675q0 38 27.5 66t64.5 28q38 0 65 -28t27 -66q0 -37 -27 -64.5 t-65 -27.5q-37 0 -64.5 27.5t-27.5 64.5zM666 1675q0 38 27 66t65 28q37 0 64.5 -28t27.5 -66q0 -37 -27.5 -64.5t-64.5 -27.5q-38 0 -65 27.5t-27 64.5z" />
<glyph unicode="&#x2c6;" horiz-adv-x="833" d="M169.5 1289.5q2.5 14.5 16.5 23.5l195 123q15 9 35 9t35 -9l194 -123q35 -21 10 -53l-20 -29q-25 -31 -60 -10l-159 104l-160 -104q-34 -24 -57 10l-21 29q-11 15 -8.5 29.5z" />
<glyph unicode="&#x2dc;" horiz-adv-x="839" d="M174 1348q64 73 145 73q37 0 75.5 -20t70.5 -40t53 -20q45 0 82 37q13 14 26.5 14t22.5 -12l13 -16q26 -26 2 -59q-63 -74 -146 -74q-47 0 -111 40t-88 40q-46 0 -83 -37q-27 -27 -52 4l-6 8q-27 33 -4 62z" />
<glyph unicode="&#x2000;" horiz-adv-x="917" />
<glyph unicode="&#x2001;" horiz-adv-x="1835" />
<glyph unicode="&#x2002;" horiz-adv-x="917" />
<glyph unicode="&#x2003;" horiz-adv-x="1835" />
<glyph unicode="&#x2004;" horiz-adv-x="611" />
<glyph unicode="&#x2005;" horiz-adv-x="458" />
<glyph unicode="&#x2006;" horiz-adv-x="305" />
<glyph unicode="&#x2007;" horiz-adv-x="305" />
<glyph unicode="&#x2008;" horiz-adv-x="229" />
<glyph unicode="&#x2009;" horiz-adv-x="367" />
<glyph unicode="&#x200a;" horiz-adv-x="101" />
<glyph unicode="&#x2010;" horiz-adv-x="995" d="M188 565v27q0 22 14 35.5t36 13.5h520q22 0 34.5 -13.5t12.5 -35.5v-27q0 -22 -12.5 -34.5t-34.5 -12.5h-520q-22 0 -36 13t-14 34z" />
<glyph unicode="&#x2011;" horiz-adv-x="995" d="M188 565v27q0 22 14 35.5t36 13.5h520q22 0 34.5 -13.5t12.5 -35.5v-27q0 -22 -12.5 -34.5t-34.5 -12.5h-520q-22 0 -36 13t-14 34z" />
<glyph unicode="&#x2012;" horiz-adv-x="995" d="M188 565v27q0 22 14 35.5t36 13.5h520q22 0 34.5 -13.5t12.5 -35.5v-27q0 -22 -12.5 -34.5t-34.5 -12.5h-520q-22 0 -36 13t-14 34z" />
<glyph unicode="&#x2013;" horiz-adv-x="1024" d="M0 565v33q0 21 12 33t33 12h934q21 0 33 -12t12 -33v-33q0 -20 -12.5 -32.5t-32.5 -12.5h-934q-20 0 -32.5 12.5t-12.5 32.5z" />
<glyph unicode="&#x2014;" horiz-adv-x="2048" d="M0 565v33q0 21 12 33t33 12h1958q21 0 33 -12t12 -33v-33q0 -20 -12.5 -32.5t-32.5 -12.5h-1958q-20 0 -32.5 12.5t-12.5 32.5z" />
<glyph unicode="&#x2018;" horiz-adv-x="481" d="M143 1042l113 351q11 37 53 37h19q43 0 32 -46l-81 -344q-9 -45 -56 -45h-49q-20 0 -28.5 13.5t-2.5 33.5z" />
<glyph unicode="&#x2019;" horiz-adv-x="483" d="M139 1040l82 344q13 46 58 46h47q21 0 29.5 -14.5t2.5 -35.5l-112 -348q-14 -37 -56 -37h-18q-45 0 -33 45z" />
<glyph unicode="&#x201a;" horiz-adv-x="477" d="M109 -227l81 344q5 20 20.5 33.5t35.5 13.5h49q20 0 28.5 -14t2.5 -33l-111 -346q-12 -41 -55 -41h-19q-44 0 -32 43z" />
<glyph unicode="&#x201c;" horiz-adv-x="755" d="M147 1042l113 351q11 37 53 37h19q45 0 33 -46l-82 -344q-9 -45 -56 -45h-49q-20 0 -28.5 13.5t-2.5 33.5zM420 1042l112 351q11 37 54 37h18q45 0 33 -46l-82 -344q-12 -45 -55 -45h-49q-20 0 -29 13.5t-2 33.5z" />
<glyph unicode="&#x201d;" horiz-adv-x="755" d="M137 1040l82 344q13 46 55 46h50q20 0 29 -14t1 -34l-112 -350q-11 -37 -54 -37h-18q-45 0 -33 45zM410 1040l82 344q10 46 55 46h49q20 0 28.5 -13.5t2.5 -34.5l-113 -350q-11 -37 -53 -37h-19q-44 0 -32 45z" />
<glyph unicode="&#x201e;" horiz-adv-x="749" d="M106 -225l84 342q4 23 19.5 35t36.5 12h49q20 0 28.5 -13.5t2.5 -33.5l-113 -353q-10 -34 -53 -34h-21q-42 0 -33 45zM379 -225l82 342q12 47 57 47h47q21 0 30 -13t3 -34l-113 -353q-7 -20 -19.5 -27t-35.5 -7h-18q-45 0 -33 45z" />
<glyph unicode="&#x2022;" horiz-adv-x="1075" d="M223 643q0 130 93 221.5t221 91.5q130 0 222.5 -91.5t92.5 -221.5q0 -129 -93 -220t-222 -91q-128 0 -221 91.5t-93 219.5z" />
<glyph unicode="&#x2026;" horiz-adv-x="1726" d="M123 72q0 40 29 69t69 29t68 -29t28 -69t-28.5 -69.5t-67.5 -29.5q-40 0 -69 29.5t-29 69.5zM766 72q0 40 28 69t68 29t69.5 -29t29.5 -69t-29.5 -69.5t-69.5 -29.5q-39 0 -67.5 29.5t-28.5 69.5zM1407 72q0 40 28.5 69t69.5 29q40 0 68.5 -29t28.5 -69t-28.5 -69.5 t-68.5 -29.5q-41 0 -69.5 29.5t-28.5 69.5z" />
<glyph unicode="&#x202f;" horiz-adv-x="367" />
<glyph unicode="&#x2039;" horiz-adv-x="757" d="M182 514q-28 39 0 78l244 301q12 17 33.5 20.5t36.5 -8.5l30 -22q15 -12 16.5 -32.5t-10.5 -35.5l-213 -262l216 -264q12 -15 9 -35t-20 -33l-28 -20q-15 -12 -36 -7.5t-32 19.5z" />
<glyph unicode="&#x203a;" horiz-adv-x="757" d="M212.5 254q-2.5 20 10.5 35l215 264l-215 262q-12 15 -10 35.5t16 32.5l33 22q15 12 36.5 8.5t33.5 -20.5l243 -301q28 -39 0 -78l-245 -301q-11 -15 -32 -19.5t-36 7.5l-29 20q-18 13 -20.5 33z" />
<glyph unicode="&#x205f;" horiz-adv-x="458" />
<glyph unicode="&#x20ac;" horiz-adv-x="1122" d="M74 543v22q0 19 11 30t30 11h106v215h-106q-19 0 -30 11t-11 30v25q0 19 11 30t30 11h106q3 257 124 392.5t360 135.5q146 0 284 -35q19 -5 28 -19.5t3 -35.5l-8 -33q-9 -45 -54 -35q-132 31 -253 31q-180 0 -258.5 -100.5t-81.5 -300.5h434q41 0 35 -41l-5 -25 q-8 -41 -49 -41h-415v-215h434q41 0 35 -41l-5 -22q-8 -41 -49 -41h-415q3 -198 80 -300t260 -102q115 0 253 29q45 10 54 -33l8 -33q10 -46 -31 -55q-138 -35 -284 -35q-238 0 -359.5 136t-124.5 393h-106q-19 0 -30 11t-11 30z" />
<glyph unicode="&#x2122;" horiz-adv-x="1509" d="M96 1370v21q0 39 41 39h426q41 0 41 -39v-21q0 -39 -41 -39h-157v-557q0 -19 -11 -30t-30 -11h-29q-19 0 -30 11t-11 30v557h-158q-41 0 -41 39zM657 776l66 608q2 19 14.5 32.5t30.5 13.5h43q19 0 35 -13.5t22 -34.5l166 -436l172 447q13 37 51 37h43q19 0 33 -12.5 t15 -31.5l65 -610q3 -19 -6.5 -31t-28.5 -12h-32q-19 0 -30 11t-13 30l-48 465l-143 -383q-14 -41 -53 -41h-47q-40 0 -54 41l-143 383l-47 -467q-3 -39 -43 -39h-33q-19 0 -28.5 12t-6.5 31z" />
<glyph unicode="&#x25fc;" horiz-adv-x="1044" d="M0 0v1044h1044v-1044h-1044z" />
</font>
</defs>
</svg>
